<svg width="30" height="30" viewBox="0 0 30 30" fill="none" xmlns="http://www.w3.org/2000/svg">
<path d="M28.9103 1.44201L22.8167 0.0357891C22.1546 -0.116551 21.4749 0.229145 21.2054 0.850226L18.3929 7.41259C18.1468 7.9868 18.3109 8.66061 18.7972 9.05318L22.3479 11.9594C20.2386 16.4534 16.5531 20.1916 11.9653 22.342L9.05914 18.7913C8.66071 18.3049 7.99276 18.1409 7.41855 18.387L0.856184 21.1994C0.229243 21.4748 -0.116453 22.1545 0.0358879 22.8166L1.44211 28.9102C1.58859 29.543 2.15108 30 2.81317 30C17.8187 30 30.0001 17.8421 30.0001 2.81308C30.0001 2.15684 29.549 1.58849 28.9103 1.44201Z" fill="#001E64"/>
</svg>
