<svg width="180" height="166" viewBox="0 0 180 166" fill="none" xmlns="http://www.w3.org/2000/svg">
<g opacity="0.15">
<path d="M95.4112 0.487634C92.0214 0.981975 79.4328 2.21077 73.7503 2.59212C70.5012 2.8181 62.948 2.86047 60.8522 2.67686C59.7832 2.57799 59.5441 2.50737 58.883 2.06953C57.8703 1.37745 57.2374 1.20796 56.0418 1.27858C54.6493 1.37745 53.6085 1.90004 52.441 3.07233C51.3017 4.23051 50.8798 5.07795 50.7813 6.34911C50.711 7.43667 50.922 10.092 51.3158 12.6908C51.7378 15.5015 51.9065 17.719 51.8081 18.8771C51.7378 19.5692 51.4564 20.7556 51.0345 22.0833C50.6547 23.2415 50.0218 25.2753 49.6279 26.603C48.348 30.8402 47.2649 33.2131 45.7177 35.148C44.3674 36.8571 42.1873 38.3966 40.2744 39.0039C38.8959 39.4418 37.827 39.5406 33.4526 39.6677C30.5129 39.7384 28.614 39.8655 27.7982 40.0067C25.9275 40.3457 23.227 41.292 21.1031 42.3513C16.8271 44.484 14.0984 46.7298 10.9759 50.7269C10.3007 51.5884 8.86607 53.3963 7.78302 54.7522C4.46356 58.9047 3.92907 59.6109 3.43678 60.642C2.56472 62.4075 2.48032 62.9159 2.43813 66.9978C2.41 70.8819 2.29747 71.9129 1.43948 75.9665C0.398627 80.8393 0.131382 82.5342 0.0329239 85.0059C-0.0374037 86.6443 -0.00927267 87.1104 0.257972 88.3251C0.412693 89.1019 0.60961 90.0341 0.665872 90.4013C0.750265 90.938 0.933117 91.2346 1.56606 91.9267C2.78976 93.2403 4.70267 96.7713 5.11057 98.452C5.16684 98.6639 5.46221 99.13 5.75759 99.469C6.54526 100.359 6.8125 101.559 7.07975 105.246C7.29073 108.254 7.48765 109.441 7.99401 110.825C8.92233 113.325 11.0181 116.22 13.0857 117.844C14.1125 118.649 15.8566 119.61 16.3067 119.61C16.4614 119.61 16.6162 119.808 16.7287 120.132C16.9537 120.825 17.3194 121.418 18.6697 123.197C20.3154 125.372 20.5545 126.163 20.7936 130.415C20.878 131.884 20.9765 133.225 21.0327 133.367C21.2015 133.946 25.0977 138.677 27.6435 141.403C29.1767 143.042 29.4298 143.183 31.2302 143.296C32.4539 143.381 32.468 143.381 33.2697 144.073C33.7198 144.454 34.7466 145.189 35.5343 145.711C41.2308 149.412 42.3139 150.259 42.3139 151.008C42.3139 151.573 42.6092 152.208 43.2563 153.027C44.0017 153.96 44.2971 154.539 44.4096 155.301L44.494 155.937L45.4786 156.248C46.4913 156.587 47.6025 157.067 51.5268 158.917C54.9025 160.499 56.6185 160.993 58.7705 160.993C60.2474 160.993 60.7538 160.852 61.8227 160.16C62.962 159.426 63.2011 159.369 63.8482 159.666L64.3967 159.906L64.7906 159.539C65.1422 159.2 65.2969 159.157 66.0986 159.157C68.0116 159.157 69.2071 159.793 70.7403 161.643C72.6954 164.002 73.2299 164.355 75.4381 164.835C77.0557 165.174 80.6283 165.301 84.7214 165.16L87.8158 165.061L89.2224 163.677C90.9383 161.996 91.5713 161.714 93.7374 161.601C96.1004 161.474 98.801 162.024 100.967 163.084C101.544 163.366 102.078 163.578 102.149 163.55C102.233 163.536 104.132 163.465 106.368 163.394C110.743 163.253 111.615 163.154 113.331 162.618C114.737 162.166 115.764 161.474 117.424 159.863C118.985 158.338 119.801 157.773 121.151 157.293C122.994 156.615 124.245 156.403 126.285 156.417C127.987 156.417 128.296 156.459 129.281 156.798L130.392 157.18L131.953 156.276C134.119 155.019 136.426 153.931 138.592 153.14C140.885 152.321 141.616 151.94 142.418 151.205C143.248 150.443 143.417 150.075 143.642 148.536C143.754 147.816 143.895 147.095 143.951 146.94C144.204 146.22 145.147 145.217 146.652 144.016C147.552 143.296 149.015 142.025 149.887 141.177C151.758 139.369 152.63 138.875 153.685 139.016C155.766 139.313 155.372 139.454 157.651 137.618C162.518 133.677 164.107 131.742 164.965 128.649C165.275 127.533 165.359 125.457 165.176 123.932C165.092 123.268 165.12 123.113 165.443 122.632C165.64 122.322 166.259 121.093 166.808 119.892C167.849 117.618 168.721 116.149 169.438 115.472C169.663 115.26 170.507 114.751 171.309 114.342C172.926 113.537 172.842 113.621 174.347 110.994C176.682 106.898 177.765 103.523 177.765 100.316C177.765 98.6074 177.568 97.8164 176.668 96.0368L175.866 94.4267V93.0001C175.88 91.164 176.105 90.4437 177.905 86.7008C179.439 83.5088 179.846 82.2941 179.973 80.4721C180.086 78.7349 179.846 77.4919 179.242 76.7434C178.426 75.7547 177.948 74.4976 177.357 71.8706C176.752 69.0881 176.611 68.6927 175.838 67.5345C175.528 67.0825 174.361 64.8368 173.236 62.5487C170.479 56.9697 167.891 52.676 164.571 48.1845C163.727 47.0405 163.418 46.7156 163.08 46.645C162.447 46.5179 161.308 45.8541 159.93 44.7948C158.382 43.6084 157.637 43.2694 155.963 42.9869C154.107 42.6762 153.516 42.4219 152.545 41.5321C152.025 41.0519 151.279 40.5576 150.562 40.2186C149.479 39.7101 148.762 39.4841 144.655 38.326L142.854 37.8175L141.982 36.9418C140.716 35.6565 139.703 35.148 135.653 33.7215C132.811 32.7328 131.967 32.3515 130.842 31.5888L129.97 31.0097L129.886 30.1199C129.759 28.877 129.225 27.1115 128.296 24.8516C126.215 19.7811 125.807 18.5382 125.582 16.5326C125.427 15.219 125.624 13.5806 126.018 12.7332C126.299 12.1541 126.426 12.0411 128.128 10.9959C128.662 10.6711 128.887 10.4027 129.253 9.64002C129.675 8.77845 129.731 8.52422 129.773 7.25305L129.829 5.8124L128.479 5.43105C127.748 5.21919 125.722 4.56948 124.006 3.9904C118.014 1.95653 116.003 1.39157 113.063 0.883107C111.39 0.586502 107.929 0.530006 104.343 0.741867C102.191 0.868983 102.149 0.854859 101.08 0.487634C99.7152 0.0215401 98.5197 0.0215401 95.4112 0.487634ZM113.19 2.66274C115.272 3.08646 116.847 3.62317 121.151 5.34631C123.247 6.17962 125.469 7.04119 126.116 7.25305L127.284 7.6344L126.608 8.35473C124.4 10.7276 123.247 13.5665 123.359 16.3207C123.402 17.5071 123.444 17.6625 124.358 19.654C125.427 21.9986 125.483 22.1963 126.369 26.2499C127.256 30.36 127.776 31.8571 128.789 33.2554C129.14 33.7356 129.351 33.8628 130.097 34.0746C131.475 34.4701 134.373 35.3882 135.709 35.8825C137.087 36.3768 139.507 37.4079 139.507 37.5068C139.507 37.535 139.408 37.761 139.282 37.987C139.169 38.2271 139.085 38.439 139.113 38.4672C139.141 38.4954 139.76 38.6649 140.519 38.8627C141.265 39.0745 142.756 39.5548 143.825 39.9643C147.088 41.179 149.648 42.0406 150.576 42.2242C151.322 42.3796 151.462 42.4502 151.462 42.6903C151.462 42.8598 151.659 43.1846 151.884 43.4389C152.194 43.792 152.475 43.9191 153.136 44.0462C155.133 44.4134 156.821 45.2467 160.014 47.4783C161.196 48.2975 162.293 49.0179 162.433 49.0602C162.588 49.1026 163.024 49.7241 163.432 50.4444C163.84 51.1647 165.697 54.0319 167.567 56.8426C171.379 62.5346 172.715 64.9922 173.587 67.9158C174.094 69.6107 174.53 71.8282 174.53 72.7321V73.2547L172.954 72.5485C163.474 68.3254 156.568 63.7916 141.546 51.9415C139.071 49.9924 135.653 47.3371 133.951 46.0518C130.955 43.792 130.547 43.3824 130.913 43.0151C131.236 42.6903 131.011 42.5208 129.534 41.9417C128.704 41.6169 127.734 41.1508 127.396 40.9107L126.777 40.4587L127.382 40.3174C129.661 39.8231 134.401 42.2666 141.251 47.4642C144.233 49.7241 146.652 51.419 147.918 52.111C148.185 52.2664 148.354 52.4924 148.41 52.789C148.466 53.0715 148.748 53.4528 149.17 53.8342C149.535 54.159 150.182 54.7805 150.618 55.2183C151.04 55.642 151.715 56.1788 152.095 56.4047C153.375 57.1392 155.147 58.3256 157.862 60.2041C161.899 63.0007 163.291 63.8764 165.542 65.0063C167.356 65.9243 170.676 67.1814 170.83 67.0119C170.859 66.9837 170.676 66.7153 170.423 66.4187C169.93 65.8537 168.636 65.1616 167.778 65.0204C167.37 64.9498 167.103 64.7662 166.583 64.1588C165.739 63.1702 164.698 62.4781 163.643 62.2097C163.108 62.0685 162.56 61.786 162.096 61.4188C160.647 60.2606 156.948 57.464 154.416 55.6279C148.044 50.967 144.289 47.8738 141.87 45.2326C141.56 44.8936 141.223 44.6112 141.124 44.6112C140.772 44.6112 138.156 43.1988 136.412 42.0688C134.077 40.5434 132.108 39.5971 130.561 39.2158C129.422 38.9333 129.253 38.8485 128.676 38.2553C127.748 37.2808 126.777 36.6169 124.063 35.0916C120.743 33.2131 119.351 32.0408 118.577 30.4589C118.436 30.134 117.916 29.6397 117.199 29.103C114.217 26.8855 112.388 24.5268 107.508 16.5749C104.877 12.2812 102.556 9.30104 101.867 9.30104C101.276 9.30104 100.531 8.90557 99.7715 8.18524C98.9698 7.42254 98.3368 7.2248 97.2819 7.39429C96.1004 7.57791 95.3268 7.93101 93.7655 8.99031C91.8245 10.2897 91.079 10.6005 89.8412 10.6005C88.7019 10.6005 88.2237 10.4027 86.789 9.32929C85.4528 8.3406 84.3838 7.78977 83.3711 7.60615C82.274 7.39429 81.641 7.56378 80.4736 8.36885C79.8969 8.76433 79.1092 9.27279 78.7295 9.5129C78.1528 9.866 77.8574 10.2191 77.0276 11.5609C76.4087 12.5354 75.6351 13.5524 75.0865 14.1032C74.4958 14.6823 74.0597 15.2614 73.905 15.6569C72.8782 18.2981 71.5561 19.8376 67.4208 23.1426C64.8749 25.1765 63.7638 26.1793 62.948 27.168C62.5119 27.6905 61.9071 28.2131 61.3445 28.538C59.4738 29.6255 57.364 31.3204 54.5368 33.9616C49.6983 38.5096 48.9387 39.0745 44.916 41.1508C42.131 42.5773 40.2744 43.7355 39.557 44.484L39.1491 44.9219L39.7117 44.823C40.851 44.6253 41.9904 44.2863 43.1578 43.8061C45.5208 42.8315 47.2087 41.7581 51.8081 38.2553C53.51 36.9559 55.3807 35.5859 55.9574 35.1904C56.5341 34.7949 57.9688 33.5944 59.1222 32.5351C63.9185 28.1284 67.041 25.7838 70.262 24.1454C71.1763 23.6934 71.4154 23.4957 71.6967 22.9872C72.7376 21.0805 74.3692 18.7359 75.8179 17.0269C76.3243 16.4196 76.9713 15.3885 77.562 14.2303C79.1796 11.0524 80.558 9.90837 83.0335 9.75301L84.201 9.68239L85.059 10.4027C86.7187 11.801 87.9143 12.2671 89.785 12.2812C91.5291 12.2953 91.9792 12.1258 94.075 10.7134C95.2565 9.9225 95.9738 9.58352 96.4942 9.58352C96.8599 9.58352 96.7333 9.97899 96.0723 10.9677C95.805 11.3632 95.6222 11.7445 95.6644 11.7869C95.8472 11.9705 96.6067 11.5185 96.9724 11.01C97.1834 10.7276 97.3803 10.4733 97.3944 10.4451C97.4788 10.3462 97.8726 10.7417 97.8726 10.9394C97.8726 11.0383 97.6054 11.4196 97.2819 11.801L96.7052 12.479L97.4647 12.5919C97.8867 12.6484 98.6322 12.6484 99.1245 12.6061C100.109 12.5072 100.053 12.4366 99.7574 13.397C99.6449 13.736 99.7293 13.736 100.601 13.4818C101.347 13.2558 101.614 13.2981 101.825 13.7077C102.022 14.075 101.755 14.3857 101.248 14.3857C100.419 14.3857 100.686 15.2614 101.67 15.7557C102.331 16.0947 103.203 16.1795 103.654 15.9393C104.005 15.7416 104.005 15.9676 103.64 16.2924C103.33 16.5749 103.274 16.9986 103.513 17.154C103.597 17.1964 103.907 17.1258 104.202 16.9986C105.271 16.5184 105.482 17.1258 104.54 18.0015C104.033 18.4817 103.921 18.9619 104.287 19.1031C104.526 19.202 105.187 18.8913 105.454 18.5664C105.679 18.2981 106.171 18.2698 106.171 18.5099C106.171 18.6088 105.932 18.8206 105.637 18.976C105.229 19.202 105.13 19.3432 105.159 19.6116C105.201 20.0494 105.215 20.0636 105.96 20.1342C106.678 20.2189 106.79 20.4732 106.242 20.8263C105.538 21.2782 105.96 21.7726 106.72 21.3912C107.268 21.0946 107.986 21.0946 108.098 21.3912C108.14 21.5183 108.014 21.7867 107.733 22.0692C107.015 22.8178 107.184 23.072 108.408 23.072C109.364 23.072 109.603 23.3403 109.153 23.9194C108.844 24.3149 108.745 24.894 108.956 25.0352C109.027 25.0776 109.378 25.007 109.758 24.894C110.546 24.668 111.024 24.7386 110.883 25.0917C110.489 26.1228 110.827 26.6736 111.854 26.6736C112.43 26.6736 112.487 26.7019 112.571 27.1115C112.627 27.3516 113.176 28.2979 113.795 29.2159C114.667 30.5154 114.934 31.0238 114.99 31.5182C115.061 32.0549 115.131 32.1679 115.567 32.408C115.834 32.5492 116.228 32.8317 116.453 33.0436C116.805 33.3825 116.833 33.4673 116.763 34.2441C116.636 35.6 116.861 36.0944 118.211 37.5774C119.041 38.4672 119.745 39.4418 120.42 40.5858C120.954 41.518 121.84 43.0293 122.375 43.9332C124.034 46.7863 125.385 48.2975 130.505 53.015C132.98 55.3031 135.132 57.4499 136.482 58.9471C138.845 61.6024 140.111 62.7464 141.419 63.4244C142.249 63.8622 142.348 63.9611 142.784 64.8368L143.234 65.7972H143.979C144.725 65.7972 144.725 65.7972 144.978 66.4046C145.119 66.7294 145.287 67.2096 145.344 67.4639C145.442 67.9158 145.442 67.9158 146.314 67.9158C147.636 67.9158 147.833 68.2548 147.032 69.0881C146.764 69.3706 146.539 69.6531 146.539 69.7378C146.539 69.9638 147.003 70.0344 147.524 69.8932C148.326 69.6672 149.071 69.7096 149.071 69.9921C149.071 70.1192 149.141 70.444 149.24 70.6983C149.395 71.1361 149.451 71.1644 150.112 71.1644C150.759 71.1644 150.843 71.2067 151.448 71.8706C151.94 72.4073 152.236 72.605 152.63 72.6756C153.052 72.7321 153.15 72.8028 153.08 72.9864C152.798 73.6643 152.7 74.0174 152.784 74.088C152.939 74.2434 153.685 74.1445 154.149 73.9044C154.613 73.6785 154.613 73.6785 154.936 74.0739C155.372 74.6248 155.344 74.8366 154.768 75.3027C154.5 75.5146 154.275 75.7547 154.275 75.8394C154.275 75.9383 154.782 75.9665 155.682 75.9383C156.456 75.91 157.088 75.91 157.088 75.9383C157.088 75.9665 156.92 76.2067 156.709 76.475C156.399 76.8987 156.371 76.9976 156.54 77.1106C156.948 77.379 157.426 77.4072 158.157 77.2095C159.297 76.8846 159.564 77.3366 158.706 78.1416C158.439 78.41 158.214 78.7207 158.214 78.8479C158.214 79.0456 158.312 79.0738 158.889 79.0032C159.494 78.9185 159.606 78.9608 160.253 79.4128C160.788 79.8083 161.097 79.9213 161.547 79.9213H162.124L162.068 80.4439C161.969 81.2489 162.11 81.3619 162.898 81.0936C163.46 80.91 163.657 80.8958 164.192 81.0512C164.937 81.2631 165.823 82.1529 166.076 82.9297L166.259 83.4523H167.159C168.13 83.4523 168.214 83.537 167.891 84.2291C167.806 84.4269 167.778 84.6246 167.82 84.6811C167.975 84.8364 168.721 84.7517 169.143 84.5398C169.354 84.4269 169.705 84.2997 169.93 84.2432C170.31 84.1585 170.31 84.1585 170.31 84.8223V85.5003H171.759C173.039 85.5003 173.278 85.5427 173.897 85.8675L174.6 86.2347L174.558 87.2093C174.544 87.746 174.361 88.9607 174.178 89.9211C173.7 92.2516 173.63 93.1131 173.812 94.1018C173.897 94.5679 173.939 94.9775 173.897 95.0058C173.77 95.1329 172.026 94.2996 170.985 93.6216C170.423 93.2403 169.143 92.2516 168.13 91.4324C165.95 89.6104 164.965 88.9324 163.727 88.3533C163.01 88.0285 162.419 87.5765 161.238 86.4325C160.394 85.5991 158.143 83.6359 156.245 82.0399C152.489 78.8902 149.577 76.0654 148.368 74.4129C147.946 73.8197 146.736 72.5485 145.625 71.5316C137.34 63.8622 130.884 57.2381 126.229 51.6026C121.024 45.3174 116.481 38.3966 113.246 31.8571C112.67 30.699 112.177 29.7809 112.149 29.8092C112.051 29.908 112.501 31.9136 112.866 33.0294C113.373 34.5407 114.428 36.7158 116.552 40.5293C120.096 46.9416 122.009 49.7382 125.202 53.1845C126.004 54.0601 126.819 55.0771 127.03 55.4726C127.537 56.3765 142.052 71.0373 144.725 73.3253C145.78 74.2293 146.793 75.2038 146.975 75.5005C148.494 78.0287 151.054 80.5145 156.245 84.5116C158.706 86.4042 160.844 88.2121 161.927 89.3279C162.335 89.7516 162.771 90.0906 162.912 90.0906C163.038 90.0906 163.573 90.3166 164.107 90.5849C164.628 90.8533 165.134 91.0793 165.232 91.0793C165.331 91.0793 165.753 91.4183 166.161 91.842C166.569 92.2516 167.441 92.9154 168.088 93.3109C169.565 94.2007 170.521 95.0481 170.887 95.7543C171.084 96.1498 171.252 96.3052 171.492 96.3052C172.012 96.3052 173.489 97.1244 173.981 97.6893C175.852 99.8221 175.669 104.186 173.517 108.325C172.757 109.808 171.703 111.135 171.309 111.135C170.957 111.135 170.634 110.726 170.521 110.147C170.451 109.751 170.254 109.525 169.565 109.017C166.54 106.799 162.251 102.689 156.034 96.0227C154.177 94.0453 151.476 91.2346 150.028 89.794C148.565 88.3533 147.383 87.1104 147.383 87.0398C147.383 86.7432 146.047 84.8647 145.006 83.7348C143.375 81.941 142.46 80.8111 140.899 78.7207C139.521 76.8705 138.142 75.2462 135.484 72.3649C132.432 69.0316 130.884 66.9272 129.689 64.4272C129.098 63.1843 128.859 62.8594 128.001 62.0544C126.637 60.7832 125.427 59.2295 122.923 55.5008C121.742 53.7494 120.406 51.8427 119.941 51.2636C119.323 50.4726 118.83 49.5969 118.113 48.0009C117.578 46.8004 115.651 42.8174 113.837 39.1593C111.193 33.8486 110.532 32.408 110.532 31.956C110.532 31.3204 110.25 30.8402 109.828 30.7272C109.575 30.6566 109.547 30.7272 109.547 31.3487C109.547 32.0831 109.955 33.4955 110.349 34.1452C110.475 34.343 110.771 34.7102 110.982 34.9503C111.305 35.3034 111.488 35.7836 111.868 37.2808C113.288 42.9445 114.906 46.2637 120.828 55.642C122.178 57.7748 123.669 60.2041 124.161 61.0657C125.103 62.7464 125.554 63.2549 126.088 63.2549C126.383 63.2549 126.426 63.3114 126.426 63.7634C126.426 64.1588 126.524 64.3566 126.876 64.6391C128.367 65.9102 128.592 66.1786 129.281 67.6051C129.998 69.074 130.73 69.9779 131.306 70.1192C131.56 70.1898 131.602 70.2746 131.531 70.6135C131.363 71.4751 131.813 72.0118 132.685 72.0118C132.994 72.0118 133.036 72.0824 133.05 72.5768C133.065 72.8875 133.079 73.2124 133.093 73.2971C133.093 73.3677 133.515 73.7773 134.021 74.1728C135.16 75.105 135.892 76.0654 136.201 77.04L136.44 77.8027H137.101H137.777L137.762 78.3959C137.748 78.975 137.777 79.0032 138.649 79.5964C139.76 80.3168 139.872 80.4862 139.577 81.0371C139.155 81.8845 139.338 82.1811 140.294 82.1811C140.744 82.1811 140.801 82.2376 141.054 82.8026C141.349 83.4947 141.757 83.7913 142.263 83.6924C142.685 83.6218 142.685 83.6642 142.249 84.1867C142.052 84.4127 141.926 84.6528 141.968 84.7235C141.996 84.78 142.376 85.0059 142.812 85.2037C143.642 85.6133 143.909 86.0794 143.6 86.5737C143.515 86.7149 143.445 86.8562 143.445 86.8703C143.445 86.8986 143.923 86.8844 144.514 86.8703C145.513 86.8279 145.583 86.8421 145.484 87.0822C145.414 87.2234 145.358 87.5906 145.358 87.9014C145.344 88.4663 145.344 88.4663 146.455 89.0595C147.876 89.8364 148.185 90.1188 148.298 90.8533C148.424 91.5595 148.551 91.729 149.226 92.068C149.577 92.2516 149.887 92.5906 150.182 93.1273C150.548 93.777 150.745 93.9606 151.293 94.2007C152.362 94.6385 152.377 94.6527 152.334 95.3024C152.292 95.825 152.334 95.8956 152.742 96.1498C152.995 96.3052 153.389 96.4747 153.6 96.517C154.008 96.6159 154.078 96.7148 153.867 96.9549C153.685 97.1526 153.572 97.7741 153.685 97.9577C153.741 98.0566 154.191 98.1413 154.697 98.1695C155.752 98.2119 155.893 98.4238 155.387 99.1159C154.88 99.8079 155.091 100.034 156.16 99.9492C157.609 99.8221 157.862 100.189 157.004 101.136C156.357 101.87 156.484 101.997 157.961 102.096C158.636 102.138 159.128 102.237 159.156 102.336C159.184 102.421 159.015 102.717 158.776 103C157.946 103.932 158.411 104.384 159.831 104.045C161.238 103.692 161.997 104.116 161.308 104.85C161.139 105.034 161.027 105.288 161.055 105.443C161.097 105.655 161.238 105.698 162.082 105.698C163.038 105.698 163.066 105.712 163.108 106.079C163.137 106.291 163.052 106.644 162.94 106.884C162.813 107.11 162.715 107.435 162.715 107.604C162.715 108.014 163.432 107.986 164.093 107.534C164.698 107.11 164.853 107.096 165.134 107.421C165.359 107.703 165.331 107.887 164.839 108.918C164.585 109.455 164.557 109.638 164.684 109.808C164.979 110.147 165.246 110.034 165.893 109.342C166.372 108.805 166.54 108.706 166.681 108.847C166.766 108.932 166.962 109.017 167.103 109.017C167.427 109.017 167.413 109.144 167.075 109.582C166.709 110.048 166.723 110.387 167.117 110.585C167.286 110.683 167.652 110.952 167.933 111.192C168.2 111.432 168.552 111.7 168.707 111.785C168.96 111.926 168.946 111.969 168.566 112.943C168.045 114.229 167.103 115.712 165.95 117.053C165.12 118.028 165.021 118.212 164.726 119.356C164.557 120.048 164.248 120.867 164.023 121.192C163.657 121.743 162.841 122.435 162.56 122.435C162.49 122.435 161.533 121.206 160.422 119.709C158.143 116.644 157.44 115.81 156.118 114.61C155.344 113.918 155.021 113.466 154.233 111.997C152.883 109.511 151.856 108 150.618 106.686C149.901 105.938 149.254 105.034 148.663 104.003C147.468 101.927 145.864 99.582 142.924 95.6555L140.491 92.3928V91.6301C140.477 90.8815 140.463 90.8392 139.071 89.1019C137.411 87.0116 136.553 85.7404 133.951 81.4749C131.728 77.845 129.056 73.7491 127.495 71.5881C126.608 70.3593 126.426 70.0062 126.426 69.5684C126.426 68.8621 126.383 68.7915 122.262 61.899C116.341 51.9839 113.528 46.8569 113.682 46.2637C113.823 45.6846 113.485 44.1451 112.993 43.1281C112.74 42.5773 112.093 41.5321 111.572 40.7977C111.038 40.0632 110.349 38.9333 110.011 38.2836C109.491 37.2949 109.406 36.9842 109.406 36.278C109.406 35.5294 109.308 35.2469 108.562 33.778C107.817 32.295 105.834 29.3572 105.581 29.3572C105.426 29.3572 105.299 30.1905 105.398 30.6566C105.454 30.8967 105.693 31.5182 105.918 32.0266C106.143 32.5351 106.875 34.3289 107.536 35.9955C108.956 39.6112 109.378 40.4587 110.686 42.4502C111.952 44.3711 112.219 44.9925 112.219 45.9812C112.219 47.6478 114.259 51.7156 119.534 60.5007C122.923 66.1786 124.442 68.8763 124.864 70.0486C125.174 70.8678 125.399 71.2632 127.199 74.1304C127.804 75.105 128.592 76.4326 128.929 77.0965C129.59 78.3535 138.044 91.4183 143.009 98.8475C150.098 109.469 155.668 116.997 161.097 123.324L162.883 125.415L162.799 126.149C162.419 129.031 161.083 131.418 158.622 133.593C156.779 135.245 155.429 136.276 155.161 136.276C154.782 136.276 154.346 135.754 154.036 134.934C153.882 134.539 153.052 133.282 152.18 132.124C149.381 128.381 147.06 124.779 142.953 117.844C137.523 108.65 136.454 106.884 134.921 104.455C133.529 102.28 133.318 101.87 133.318 101.347C133.318 100.288 132.924 98.9746 132.418 98.3673C130.744 96.2911 129.337 93.8052 125.666 86.3477C124.091 83.1557 122.347 79.8083 121.798 78.9043C121.123 77.7744 120.659 76.7999 120.377 75.8959C119.801 74.1304 119.21 72.7039 117.072 68.0571C114.653 62.8029 113.893 60.9951 112.248 56.5319C111.474 54.4415 110.208 51.1365 109.434 49.2015C106.382 41.518 106.171 40.8965 105.679 37.761C105.426 36.1226 104.835 34.7526 104.188 34.2865L103.766 33.9899L103.836 34.456C103.893 34.7243 104.047 35.7554 104.216 36.7723C104.694 39.8655 105.538 43.5519 106.439 46.4473C107.184 48.8484 110.588 58.3115 111.966 61.7719C113.049 64.5261 114.793 68.0712 115.862 69.7096L116.706 71.0231L116.467 71.6587C116.2 72.3932 116.298 72.6615 116.945 73.0005C117.171 73.1135 117.382 73.2265 117.41 73.2406C117.424 73.2547 117.283 73.4948 117.072 73.7632L116.692 74.2717L117.058 74.4129C117.48 74.5683 117.705 75.0485 117.705 75.7688C117.705 76.3055 118.113 76.814 118.549 76.814C118.704 76.814 118.83 76.8987 118.83 76.9976C118.83 77.1106 118.704 77.3083 118.549 77.4496C118.394 77.5908 118.268 77.8592 118.268 78.0569C118.268 78.3959 118.296 78.3959 118.901 78.3253C119.505 78.2405 119.534 78.2405 119.759 78.749L120.012 79.2574L119.477 79.6812C118.985 80.0766 118.971 80.1049 119.196 80.3591C119.365 80.5569 119.632 80.6275 120.096 80.6275C120.56 80.6275 120.87 80.7122 121.137 80.9241C121.657 81.3337 121.573 81.7574 120.884 82.1105C120.195 82.4777 119.97 82.8026 120.181 83.1274C120.349 83.3817 120.659 83.4099 121.657 83.2263C122.108 83.1557 122.178 83.1839 122.248 83.4664C122.375 83.9325 122.178 84.1726 121.503 84.4269C120.785 84.6952 120.701 84.8506 121.039 85.2602C121.292 85.5568 121.306 85.5568 122.037 85.3449C122.445 85.2178 122.825 85.1613 122.867 85.2037C122.909 85.246 122.839 85.4438 122.712 85.6274C122.431 86.0652 122.417 86.6161 122.698 86.8421C122.811 86.9409 123.162 87.0116 123.472 87.0116C123.978 86.9974 124.034 87.0398 124.034 87.3505C124.034 87.6754 123.598 88.2545 123.359 88.2545C123.148 88.2545 122.614 88.8336 122.698 88.9607C122.74 89.0313 123.317 89.2573 123.964 89.455C125.005 89.7799 125.174 89.8787 125.258 90.1895C125.329 90.5002 125.258 90.6414 124.907 90.938C124.386 91.3618 124.358 91.5171 124.71 91.8137C125.103 92.1668 125.525 92.2374 125.779 91.9973C126.004 91.7572 126.285 91.8137 126.285 92.1103C126.285 92.1951 126.116 92.4352 125.919 92.647C125.441 93.1555 125.554 93.4804 126.215 93.4945C127.424 93.5369 127.579 93.8758 126.763 94.7798C126.369 95.2317 126.299 95.373 126.44 95.5425C126.651 95.7967 127.087 95.7967 127.832 95.5284C128.156 95.4154 128.451 95.3165 128.465 95.3165C128.493 95.3165 128.535 95.4577 128.578 95.6131C128.634 95.8391 128.55 96.0368 128.24 96.3193C127.832 96.7006 127.692 97.3362 127.973 97.5057C128.043 97.5481 128.296 97.4916 128.521 97.3645C129.14 97.0537 129.422 97.0961 129.703 97.5905L129.956 98.0424L129.379 98.565C128.986 98.9322 128.845 99.1582 128.901 99.3277C129.014 99.6243 129.52 99.8362 130.069 99.8362C130.533 99.8362 130.856 100.161 130.73 100.472C130.687 100.599 130.42 100.797 130.139 100.91C129.267 101.277 129.801 101.955 130.983 101.955H131.517L131.419 102.887C131.306 103.975 131.377 104.073 132.291 104.073C132.882 104.073 132.882 104.088 132.811 104.497C132.685 105.133 132.84 105.528 133.529 106.347C133.88 106.757 134.162 107.209 134.162 107.364C134.162 107.506 133.965 107.83 133.726 108.071C133.332 108.466 133.304 108.522 133.529 108.678C133.712 108.819 133.88 108.819 134.345 108.65C135.006 108.424 135.371 108.494 135.498 108.876C135.61 109.243 135.498 109.412 134.921 109.652C134.612 109.78 134.443 109.949 134.443 110.118C134.443 110.443 134.64 110.542 135.695 110.768C136.117 110.853 136.482 110.994 136.511 111.079C136.539 111.15 136.342 111.333 136.061 111.46C135.695 111.644 135.568 111.785 135.568 112.053C135.568 112.449 135.639 112.463 136.848 112.421C137.481 112.392 137.65 112.421 137.734 112.633C137.875 113 137.72 113.339 137.312 113.522C137.017 113.65 136.961 113.762 137.003 114.144L137.045 114.596L137.931 114.568C138.761 114.525 138.803 114.539 138.803 114.85C138.803 115.034 138.649 115.33 138.452 115.514C138.255 115.697 138.1 115.923 138.1 116.022C138.1 116.234 138.944 116.503 139.633 116.503C140.238 116.503 140.632 116.842 140.632 117.364C140.632 117.689 140.533 117.816 140.154 117.971C139.9 118.084 139.633 118.24 139.577 118.339C139.408 118.621 139.872 118.932 140.66 119.059C141.954 119.271 142.137 120.034 141.026 120.556C140.308 120.895 140.154 121.248 140.576 121.601C140.758 121.757 140.955 121.728 141.771 121.446C142.671 121.135 142.756 121.121 142.967 121.333C143.276 121.644 143.135 121.954 142.573 122.195C141.996 122.435 141.729 122.76 141.841 123.056C141.94 123.31 142.123 123.339 143.628 123.296L144.711 123.254V123.692C144.711 124.045 144.542 124.313 144.008 124.892C143.22 125.726 143.009 126.347 143.375 126.714C143.642 126.983 143.909 126.898 144.626 126.291C145.077 125.909 145.513 125.909 145.752 126.276C145.963 126.615 145.738 126.954 145.133 127.251C144.556 127.533 144.303 127.872 144.387 128.24C144.5 128.649 144.992 128.706 145.695 128.381C146.455 128.028 146.863 128.014 147.102 128.296C147.369 128.621 147.158 129.158 146.61 129.497C146.061 129.836 145.78 130.259 145.892 130.57C145.991 130.824 146.919 130.824 147.383 130.556C147.777 130.33 148.621 130.288 148.916 130.471C149.254 130.683 148.973 131.036 148.171 131.389C147.369 131.742 147.088 132.166 147.383 132.533C147.608 132.802 148.03 132.802 148.79 132.533C149.113 132.42 149.479 132.321 149.577 132.321C149.929 132.321 149.774 132.731 149.282 133.112C148.888 133.409 148.79 133.579 148.79 133.974C148.79 134.553 149.043 134.68 149.62 134.384C149.845 134.256 150.239 134.158 150.478 134.158C151.082 134.158 151.054 134.666 150.407 135.288C149.915 135.768 149.76 136.262 150.098 136.29C150.323 136.319 150.309 136.319 151.012 136.064C152.25 135.627 152.053 135.994 150.14 137.759C149.141 138.691 147.102 140.641 145.625 142.109C142.657 145.047 142.854 144.948 141.898 144.002C141.265 143.381 140.899 142.66 140.125 140.584C139.76 139.567 138.522 136.898 137.383 134.652C134.879 129.694 134.302 128.339 133.247 125.048C132.347 122.18 131.869 120.952 129.07 114.243C126.594 108.282 125.047 104.723 123.767 102.04C123.219 100.881 122.572 99.2995 122.333 98.5085C121.348 95.2741 120.462 92.8589 118.127 86.9833C117.185 84.6105 115.919 81.3337 115.3 79.6953C114.695 78.0569 113.935 76.0513 113.612 75.2462C112.641 72.8028 112.093 71.0655 111.572 68.6927C110.883 65.5148 110.7 64.8933 108.97 59.7239C108.126 57.1957 107.156 54.0319 106.818 52.6901C106.34 50.8399 105.96 49.7523 105.243 48.1704C104.399 46.306 104.202 45.6705 103.274 41.9558C102.134 37.3655 101.516 35.3458 100.7 33.6791C100.123 32.4786 100.095 32.4786 99.9121 33.7498C99.7434 35.0633 100.193 36.8429 101.389 39.6112C102.5 42.1536 102.796 43.114 102.95 44.7524C103.232 47.8314 103.358 48.5518 104.047 50.7551C104.427 51.998 105.257 54.7663 105.89 56.8991C106.523 59.0318 107.395 61.8001 107.817 63.043C110.968 72.2519 112.135 75.9665 113.26 80.3168C113.767 82.2941 114.076 83.1274 115.131 85.4297C120.265 96.5453 122.262 101.475 125.722 111.489C127.734 117.308 129.829 122.166 130.73 123.056C131.18 123.522 131.349 123.847 131.545 124.624C132.333 127.604 133.838 131.206 136.862 137.406C138.93 141.629 140.772 145.768 141.265 147.279C141.56 148.197 141.476 148.423 140.393 149.412C139.492 150.231 137.861 151.092 135.02 152.222C132.755 153.14 131.672 153.649 131.039 154.101C130.645 154.369 130.645 154.369 130.223 154.073C129.703 153.705 129.408 153.14 128.775 151.318C128.507 150.542 127.635 148.225 126.848 146.163C122.951 136.008 121.32 130.895 120.223 125.33C119.913 123.692 119.393 122.435 119.041 122.435C118.929 122.435 118.83 122.392 118.83 122.35C118.83 122.096 116.664 112.52 116.313 111.206C116.087 110.344 115.609 108.565 115.258 107.251C114.47 104.356 114.484 104.384 112.824 100.345C111.207 96.4182 110.714 94.9493 109.955 91.7007C109.631 90.3025 109.027 87.7319 108.619 85.9664C108.197 84.2009 107.479 80.797 107.001 78.41C106.537 76.023 105.974 73.0994 105.735 71.9412C105.51 70.7689 104.723 67.3791 103.991 64.3848C102.12 56.7296 100.742 50.176 99.2651 42.1112C98.9979 40.6847 98.7447 39.5265 98.6884 39.5265C98.4915 39.5265 98.5759 44.71 98.7869 46.8428C99.3073 51.8003 100.672 59.4132 101.867 63.9046C103.049 68.3396 103.203 69.1023 103.429 71.8706C103.654 74.5259 103.752 74.9779 104.329 75.6841C104.694 76.1502 104.723 76.2208 104.54 76.5456C104.301 76.9835 104.287 77.8309 104.54 78.41C104.638 78.6642 104.976 79.1868 105.285 79.5823C105.792 80.2179 105.834 80.3168 105.665 80.5569C105.271 81.0936 105.426 81.8986 106.228 83.4523L106.987 84.9212L106.65 85.1895C106.199 85.5285 106.228 85.6415 106.804 86.2912C107.339 86.8844 107.437 87.4211 107.086 87.8872C106.776 88.311 106.832 88.6217 107.297 89.003C107.817 89.4409 107.831 89.7092 107.367 90.0058C106.692 90.4437 106.959 90.9098 108.014 91.1358C108.745 91.2911 108.576 92.2657 107.817 92.3787C107.648 92.4069 107.493 92.5341 107.465 92.6753C107.423 92.8589 107.62 93.0143 108.197 93.2826C109.406 93.8335 109.519 94.4126 108.478 94.7515C108.197 94.8504 107.929 95.0481 107.873 95.2317C107.676 95.7543 107.831 95.9097 108.619 95.8673C109.027 95.8532 109.434 95.8815 109.519 95.9379C109.842 96.1357 109.688 96.63 109.111 97.1385C108.464 97.7458 108.52 97.8729 109.547 98.1413C110.785 98.452 110.982 98.9322 110.11 99.5113C109.35 100.006 109.266 100.105 109.266 100.458C109.266 100.867 109.491 100.966 110.391 100.966C111.629 100.966 111.952 101.814 110.954 102.449C110.644 102.647 110.391 102.901 110.391 103.014C110.391 103.127 110.757 103.41 111.221 103.636C111.671 103.876 112.079 104.158 112.135 104.285C112.29 104.723 112.219 104.921 111.91 104.921C110.996 104.935 110.503 105.472 110.897 106.037C111.08 106.291 111.249 106.333 112.023 106.333C112.895 106.333 112.923 106.347 112.923 106.686C112.923 106.941 112.768 107.138 112.36 107.393C111.868 107.703 111.812 107.788 111.938 108.028C112.135 108.395 112.627 108.706 113.176 108.819C113.795 108.946 113.809 109.469 113.204 109.723C112.684 109.949 112.501 110.246 112.599 110.754C112.67 111.121 112.712 111.135 113.485 111.135C114.273 111.135 114.315 111.164 114.526 111.573C114.793 112.11 114.751 112.195 114.006 112.562C112.698 113.226 112.684 113.678 113.964 113.678C114.751 113.678 115.131 113.875 115.201 114.299C115.229 114.525 115.131 114.61 114.653 114.709C114.118 114.808 114.048 114.864 114.048 115.217C114.048 115.683 114.203 115.839 114.92 116.065C115.384 116.22 115.595 116.446 115.595 116.799C115.595 116.87 115.342 116.926 115.019 116.926C114.484 116.926 114.456 116.94 114.498 117.322C114.526 117.632 114.695 117.788 115.384 118.127C115.862 118.367 116.242 118.664 116.27 118.805C116.341 119.172 116.045 119.469 115.581 119.469C115.272 119.469 115.173 119.539 115.173 119.737C115.173 120.09 115.469 120.316 116.073 120.415C116.355 120.457 116.58 120.514 116.58 120.542C116.58 120.57 116.481 120.81 116.355 121.079C116.017 121.771 116.172 122.223 116.861 122.519C117.607 122.858 117.635 123.324 116.931 123.663C116.439 123.904 116.172 124.384 116.369 124.68C116.411 124.765 116.749 124.836 117.114 124.836C118.029 124.836 118.38 124.963 118.493 125.302C118.563 125.528 118.479 125.697 118.141 125.994C117.789 126.319 117.564 126.389 117.002 126.389C116.341 126.389 116.298 126.418 116.298 126.757C116.298 127.209 116.974 127.519 118.029 127.519C118.465 127.519 118.887 127.604 119.055 127.717C119.294 127.915 119.308 127.943 119.098 128.155C118.985 128.282 118.661 128.494 118.394 128.621C117.86 128.889 117.705 129.341 118.057 129.638C118.183 129.737 118.605 129.892 118.999 129.977C119.674 130.132 119.702 130.161 119.477 130.387C119.337 130.514 119.069 130.669 118.858 130.711C118.141 130.867 117.846 131.036 117.846 131.333C117.846 131.629 118.366 131.94 119.126 132.096C119.477 132.166 119.505 132.223 119.477 132.915C119.463 133.635 119.463 133.635 120.096 134.016C120.94 134.511 120.926 134.836 120.04 135.288C119.224 135.697 119.126 135.867 119.519 136.262C119.759 136.502 119.998 136.559 120.659 136.559C121.461 136.559 121.503 136.573 121.503 136.912C121.503 137.18 121.376 137.321 120.982 137.505C120.42 137.773 120.237 138.254 120.504 138.677C120.631 138.861 120.715 138.861 121.109 138.691C121.967 138.338 122.136 138.395 122.178 139.059C122.22 139.539 122.164 139.68 121.925 139.807C121.77 139.892 121.503 139.92 121.362 139.878C121.165 139.807 121.081 139.85 121.081 140.019C121.081 140.372 121.7 140.909 122.304 141.064C122.6 141.149 122.966 141.304 123.12 141.417C123.373 141.601 123.373 141.629 123.148 141.968C123.022 142.166 122.614 142.505 122.248 142.717C121.868 142.929 121.559 143.126 121.531 143.141C121.503 143.155 121.559 143.31 121.643 143.479C121.798 143.762 121.897 143.776 122.881 143.734L123.964 143.691V144.256C123.964 144.793 123.95 144.821 123.303 145.005C122.431 145.245 122.389 145.612 123.191 146.022C123.795 146.333 124.245 146.389 124.386 146.163C124.527 145.937 124.878 146.276 124.78 146.53C124.738 146.629 124.499 146.855 124.231 147.025C123.289 147.604 123.753 148.564 124.977 148.564C125.765 148.564 125.779 148.847 124.991 149.652C124.245 150.414 124.386 150.626 125.694 150.753C127.016 150.88 127.227 150.937 127.326 151.191C127.565 151.827 126.932 152.236 125.75 152.236C125.132 152.236 125.132 152.236 125.329 152.561C125.455 152.731 125.891 152.999 126.355 153.154C126.805 153.31 127.199 153.508 127.227 153.592C127.298 153.79 125.75 154.214 123.162 154.708C120.293 155.245 118.127 156.008 117.578 156.671C117.466 156.798 117.339 156.897 117.283 156.897C117.114 156.897 116.355 155.231 115.961 154.002C115.426 152.392 114.962 149.962 114.47 146.234C113.739 140.725 113.246 138.126 112.641 136.333C112.304 135.358 112.29 134.68 112.585 134.44C113.092 134.002 113.092 133.776 112.585 132.491C111.376 129.454 110.743 126.319 109.758 118.692C108.802 111.291 108.436 109.229 107.156 104.427C105.806 99.3136 105.384 97.2091 105.243 94.7515L105.145 93.2261L105.524 92.8589L105.918 92.5058L105.37 92.2233C105.06 92.068 104.737 91.8561 104.638 91.7431C104.357 91.39 101.797 76.3479 100.545 67.6334C99.8559 62.8312 99.3917 59.964 97.6617 49.9077C96.1566 41.1366 95.7628 37.9164 95.805 34.9786L95.8331 32.9164L95.4112 32.3091C94.7501 31.3769 94.6376 31.4334 94.6376 32.6481C94.6376 40.6564 97.0568 59.4132 100.7 79.4976C102.725 90.7121 102.725 90.6838 103.625 93.5227C104.483 96.1922 104.596 96.7854 104.694 99.3842C104.807 102.124 105.13 103.96 106.298 108.847C107.508 113.847 107.634 114.553 108.759 122.011C110.391 132.703 112.402 144.666 114.329 154.92C114.709 156.982 115.033 158.705 115.033 158.762C115.033 158.917 113.626 159.68 112.445 160.146C109.111 161.488 105.257 161.784 102.289 160.909L101.572 160.711L101.487 157.208C101.192 146.149 100.165 135.203 96.9443 109.017C96.2692 103.48 95.4252 96.1498 94.8345 90.5849C94.3985 86.5737 94.3141 85.2178 94.2156 80.7687C94.1593 77.8874 93.9765 73.9892 93.8077 71.9412C92.7528 58.7776 92.6403 56.9273 92.5981 52.6619C92.5559 48.2693 92.5137 47.3371 92.1761 44.4699C91.9229 42.3796 91.6276 40.8824 91.1493 39.3994C90.6992 37.9587 90.6711 38.0294 90.4179 41.2355C90.1507 44.7383 90.2913 48.7495 90.7555 50.7551C91.2056 52.6619 91.2056 52.8172 90.7696 53.2268C90.3617 53.6082 90.3335 53.8765 90.6289 54.8511C90.7836 55.3454 90.8399 56.1364 90.8258 57.577C90.8258 59.4555 90.8399 59.6674 91.1634 60.303L91.501 60.9951H91.1212C90.2632 60.9951 90.1929 61.7719 91.0227 62.1674C91.4025 62.3651 91.5432 62.5205 91.5432 62.7606C91.5432 63.1702 91.2056 63.5374 90.8258 63.5374C90.4742 63.5374 90.4882 63.5939 90.9805 64.3142C91.5713 65.1758 91.5713 65.4865 91.0087 65.882L90.5445 66.2068L91.2478 66.7153C91.6416 66.9978 91.9651 67.2661 91.9651 67.3085C91.9651 67.3368 91.7119 67.6334 91.3884 67.9441L90.8118 68.509L91.2619 68.8904L91.6979 69.2576L91.4728 69.9921C91.2619 70.6842 91.2759 70.7406 91.5432 71.1926C91.6979 71.4469 91.8948 71.9836 91.9792 72.3932C92.1339 73.057 92.1198 73.17 91.8948 73.4242C91.7541 73.5796 91.5572 73.7067 91.4447 73.7067C91.304 73.7067 91.3322 73.8621 91.5713 74.2999C91.8526 74.8366 91.8948 75.1897 91.9651 77.379C92.0355 79.6247 92.0636 79.9072 92.359 80.4015C92.7528 81.0653 92.6825 81.3337 92.1058 81.3337C91.4728 81.3337 91.5291 81.8563 92.2464 82.506C92.9778 83.1557 93.006 83.5935 92.3308 83.5935C92.0636 83.5935 91.7963 83.6642 91.7541 83.7489C91.6979 83.8195 91.9229 84.2856 92.2324 84.7517C93.006 85.9099 92.9778 86.3195 92.1058 86.4466C91.8385 86.4748 91.7541 86.5737 91.7541 86.8279C91.7541 87.0963 91.9089 87.2658 92.3871 87.5483C93.3717 88.1274 93.5545 89.1019 92.6684 89.1019C92.1058 89.1019 92.0073 89.3985 92.373 89.9917C92.7809 90.6556 92.7528 90.9239 92.2464 91.0934C92.0214 91.1781 91.8245 91.3053 91.8245 91.3759C91.8245 91.5877 92.3449 92.0397 92.9638 92.3504L93.5405 92.6612L93.1888 93.0284C92.4152 93.8476 92.4434 94.4408 93.2732 94.7515C93.8218 94.9493 93.7233 95.3165 93.0482 95.6555C92.359 95.9944 92.3871 96.404 93.1185 96.7995C93.8358 97.1809 93.8218 97.534 93.0904 97.8306C92.2886 98.1413 92.359 98.565 93.231 98.7769C93.7233 98.904 93.8921 99.017 94.0046 99.3277C94.1593 99.7797 93.9624 99.9774 93.3435 99.9774C92.7809 99.9774 92.8231 100.486 93.4561 101.234L93.9765 101.828L93.5827 102.237L93.2029 102.633L93.4983 102.929C93.6811 103.113 93.9765 103.226 94.2859 103.226C94.6798 103.226 94.7782 103.282 94.7782 103.494C94.7782 103.847 94.4125 104.215 94.075 104.215C93.9343 104.215 93.6952 104.328 93.5264 104.455C93.2732 104.681 93.2592 104.751 93.4139 105.048C93.4983 105.246 93.864 105.599 94.2156 105.839C94.9048 106.319 95.2283 106.926 94.947 107.209C94.8626 107.294 94.4407 107.364 93.9906 107.35C93.3295 107.336 93.217 107.364 93.2873 107.548C93.3295 107.675 93.3717 107.83 93.3717 107.901C93.3717 107.972 93.7233 108.254 94.1453 108.522C94.5672 108.791 94.9892 109.158 95.0736 109.313C95.3268 109.794 95.0314 110.246 94.3281 110.443C93.5827 110.655 93.3717 110.811 93.3717 111.15C93.3717 111.503 93.5686 111.587 94.5532 111.686C95.2705 111.757 95.4112 111.813 95.4534 112.053C95.5237 112.534 95.158 112.859 94.4547 112.929C93.3717 113.056 93.4139 113.508 94.5391 113.932C95.7628 114.398 95.7628 114.949 94.5391 115.246C93.7655 115.443 93.5264 115.81 93.9343 116.22C94.1312 116.418 94.3985 116.503 94.8908 116.503C95.9738 116.503 96.5364 117.124 95.9457 117.675C95.805 117.788 95.3268 118.028 94.8767 118.197L94.0609 118.508L94.3985 118.946C94.9329 119.652 95.4252 119.949 96.0441 119.963C96.5505 119.963 96.6067 119.991 96.6067 120.33C96.6067 120.613 96.5083 120.74 96.1848 120.867C95.9597 120.952 95.58 121.093 95.3549 121.178C94.4547 121.517 94.7079 122.18 95.8753 122.519C96.3114 122.647 96.7755 122.83 96.8881 122.943C97.1975 123.24 96.9021 123.593 96.1848 123.805C95.4112 124.031 95.2002 124.214 95.2002 124.709C95.2002 125.203 95.3127 125.274 96.3395 125.358C97.296 125.457 97.5351 125.697 97.3803 126.404C97.2678 126.884 97.1834 126.898 96.3114 126.587C95.383 126.248 95.2002 126.361 95.2002 127.293C95.2002 128.324 95.4815 128.649 96.3958 128.748C97.6476 128.861 97.732 128.903 97.732 129.341C97.732 129.92 97.4225 130.09 96.2551 130.175C95.2846 130.231 95.2002 130.259 95.2002 130.542C95.2002 131.008 95.5659 131.418 96.3254 131.841C97.1834 132.307 97.2397 132.646 96.5364 132.943C95.9457 133.197 95.8472 133.409 96.0441 133.946C96.1848 134.327 96.227 134.327 96.9162 134.256C97.7461 134.158 98.154 134.327 98.154 134.779C98.154 135.203 97.7601 135.542 97.1553 135.655C96.5083 135.782 96.0441 136.093 96.0441 136.403C96.0441 136.799 96.3395 136.968 97.2538 137.067C98.3509 137.194 98.5759 137.321 98.5759 137.83C98.5759 138.324 98.2665 138.451 97.3803 138.31C96.9584 138.254 96.6771 138.282 96.5364 138.395C96.2551 138.635 96.2551 139.793 96.5505 140.217C96.7474 140.485 96.874 140.528 97.3663 140.485C99.0119 140.302 98.9698 141.191 97.31 141.742C96.663 141.954 96.5224 142.053 96.4942 142.364C96.438 142.872 96.8318 143.155 97.8304 143.324C98.8854 143.494 99.2792 143.691 99.2792 144.03C99.2792 144.454 98.9416 144.624 97.8867 144.737C96.8037 144.85 96.3817 145.104 96.5224 145.556C96.663 145.979 97.4085 146.333 98.379 146.417C99.2511 146.488 99.2792 146.488 99.2792 146.883C99.2792 147.406 98.9416 147.575 97.957 147.575C97.3382 147.575 97.1694 147.618 97.1694 147.801C97.1694 148.225 97.4647 148.564 98.154 148.917C98.5337 149.101 98.8854 149.327 98.9276 149.412C99.0963 149.694 98.5759 150.075 97.9008 150.174C96.8881 150.316 96.8318 150.386 97.1834 151.177C97.4647 151.799 97.4788 152.01 97.3944 153.705C97.2819 155.81 97.4085 156.276 98.2524 156.841C98.7025 157.152 98.7166 157.152 98.4634 157.462C98.2946 157.66 98.0414 157.787 97.7601 157.801C97.5069 157.801 97.31 157.886 97.31 157.971C97.31 158.239 97.957 158.733 98.6181 158.959C98.9838 159.087 99.2792 159.228 99.2792 159.298C99.2792 159.355 99.0119 159.524 98.6884 159.666C98.168 159.878 97.4929 159.934 94.2156 160.005C91.9511 160.061 90.1929 160.16 89.9819 160.259L89.6021 160.414L89.4896 156.643C89.4193 154.567 89.3911 144.892 89.4333 135.146C89.5459 106.347 89.5037 87.9155 89.3208 78.5089C89.2224 73.6502 89.0817 66.4046 89.0114 62.4075C88.8988 55.5855 88.8707 54.8228 88.3925 50.176C87.9002 45.1902 87.7595 42.2666 87.9565 40.1621C88.069 38.8627 87.9002 38.0294 87.4079 37.4503L87.0844 37.083L86.9859 41.6592C86.8593 47.549 87.1125 62.5769 87.4642 71.009C87.858 80.2179 87.9424 87.8307 87.7455 97.4351C87.5064 108.579 87.5064 109.059 87.7173 112.618C87.9846 117.124 88.0268 151.841 87.7736 154.92C87.5626 157.505 87.0985 161.29 86.8593 162.476L86.6765 163.324L86.0576 163.437C84.8339 163.663 83.1601 163.451 81.2191 162.829C79.4187 162.264 79.3906 162.25 77.4917 162.293C75.7476 162.321 75.5225 162.293 74.9881 162.01C74.6505 161.841 74.3832 161.615 74.3832 161.516C74.3832 161.417 74.5942 160.287 74.8615 159.016C76.7181 150.118 77.5339 141.883 78.5326 122.293C79.2218 108.621 79.4749 105.048 81.205 84.0173C83.0335 61.8425 83.5399 53.6647 83.7509 42.0265L83.8493 36.97L83.4836 37.1395C82.696 37.5068 82.6116 37.8034 82.5975 40.5858C82.5975 42.775 82.5412 43.4247 82.1896 45.3174C81.8098 47.323 81.7817 47.7749 81.7676 50.7551C81.7676 54.0037 81.7676 54.0037 81.3879 54.6675L81.0222 55.3313L81.2894 55.8539C81.5285 56.3341 81.5285 56.3906 81.3175 56.546C81.1347 56.6872 81.1206 56.8426 81.2191 57.5488C81.3738 58.6505 81.3316 58.8764 80.9096 59.3143L80.558 59.6815L80.994 60.0346L81.4301 60.3736L81.0644 61.3199C80.6705 62.3651 80.6283 62.93 80.8815 63.6221C81.0081 64.0035 80.98 64.3001 80.6424 65.5712C80.2345 67.0966 80.2345 67.3085 80.6565 68.4102C80.6986 68.509 80.5439 68.8198 80.3048 69.0881C80.0657 69.3565 79.8688 69.6248 79.8688 69.6672C79.8688 69.7237 80.0235 69.9779 80.2064 70.2181C80.7971 71.009 80.7971 71.2491 80.1923 71.5457C79.5312 71.8564 79.4328 72.2943 79.911 72.7745C80.2204 73.0852 80.2345 73.1417 80.0235 73.3395C79.8688 73.4948 79.7703 73.9186 79.7281 74.5965L79.6578 75.6134L79.1655 75.7688C78.4622 75.9948 78.4763 76.3055 79.2218 76.7434C79.5593 76.9411 79.8828 77.2095 79.925 77.3225C79.9672 77.4354 79.8266 77.9015 79.6015 78.3394C78.9264 79.6953 78.8279 80.119 79.0811 80.6134C79.3906 81.2066 79.3624 81.4608 78.9545 81.6444C78.7576 81.7292 78.6029 81.9128 78.6029 82.054C78.6029 82.1953 78.7576 82.4212 78.9545 82.5484C79.4046 82.845 79.3906 83.0427 78.9405 83.5794C78.5748 84.0173 78.5748 84.0314 78.7998 84.5963C79.0108 85.1189 79.0108 85.2319 78.7998 86.037C78.6591 86.5737 78.6029 87.1528 78.6591 87.5483C78.842 88.9324 78.842 88.8759 78.3778 89.0313L77.9277 89.1725L78.2653 89.8081C78.617 90.5002 78.7154 91.3335 78.4341 91.3194C77.4636 91.2911 77.4073 91.4889 78.1106 92.5199C78.7013 93.3674 78.7013 93.7346 78.1106 94.0453C77.8855 94.1583 77.6605 94.2713 77.6324 94.2854C77.5058 94.3561 78.0543 95.0199 78.3216 95.1046C78.7576 95.2459 78.5888 95.5142 78.0262 95.599C77.3511 95.6978 77.2948 96.2346 77.8855 96.9125C78.1247 97.1809 78.3216 97.5057 78.3216 97.6187C78.3216 97.9294 77.8715 98.1554 77.6042 97.9859C77.2807 97.7741 77.1963 97.8306 77.1963 98.3108C77.1963 98.6498 77.337 98.8758 77.7871 99.2853C78.3497 99.8221 78.3638 99.8362 78.1106 100.119C77.9559 100.288 77.6746 100.401 77.3792 100.401C76.9854 100.401 76.915 100.444 76.915 100.74C76.915 100.952 77.0979 101.22 77.4073 101.489C78.0403 101.997 78.1247 102.534 77.5902 102.59C77.3933 102.619 77.0557 102.732 76.8447 102.845L76.4509 103.042L77.0979 103.579C77.773 104.144 78.1387 104.78 77.9699 105.076C77.8996 105.175 77.6464 105.203 77.2526 105.147C76.4087 105.034 76.2118 105.147 76.2118 105.698C76.2118 106.15 76.2539 106.178 76.7884 106.291C77.5761 106.446 77.7871 106.771 77.3792 107.209C76.8025 107.83 76.7462 108.24 77.1119 109.13C77.7308 110.641 77.759 110.556 76.7462 110.599C75.9445 110.641 75.8601 110.669 75.9023 110.924C75.9304 111.079 76.1274 111.474 76.3665 111.799C76.8869 112.534 76.8869 112.746 76.3524 112.972C76.1274 113.07 75.9304 113.198 75.9304 113.254C75.9304 113.325 76.2539 113.65 76.6478 113.988C77.1823 114.455 77.3229 114.666 77.2526 114.85C77.1401 115.147 76.6478 115.373 76.1274 115.373C75.5788 115.373 75.6913 115.881 76.3524 116.291C76.6618 116.488 76.915 116.714 76.915 116.785C76.915 116.856 76.7181 117.237 76.4931 117.604C75.9304 118.536 75.9445 118.918 76.5775 119.44C77.2948 120.034 77.1963 120.373 76.3102 120.429L75.621 120.471L75.8742 120.853C76.0711 121.149 76.1414 121.517 76.1414 122.519C76.1414 123.55 76.1977 123.875 76.3946 124.087C76.5212 124.243 76.6337 124.497 76.6337 124.666C76.6337 125.104 75.9726 125.824 75.5647 125.824C75.0021 125.824 75.2272 126.658 75.9867 127.364C76.4368 127.788 76.2961 128.098 75.5085 128.508C75.199 128.663 74.9459 128.861 74.9459 128.946C74.9459 129.144 75.9304 130.132 76.1977 130.217C76.4931 130.316 76.1414 130.796 75.4803 131.206C74.8193 131.629 74.8052 131.912 75.4522 132.223C75.9023 132.449 75.9445 132.505 75.9023 132.999C75.8601 133.494 75.8179 133.536 75.185 133.734C74.5942 133.918 74.5239 133.988 74.552 134.299C74.5802 134.539 74.7771 134.751 75.199 134.977C75.8039 135.316 76.1555 135.754 76.0008 135.994C75.9586 136.078 75.6632 136.135 75.3538 136.135C74.7067 136.135 74.2426 136.333 74.2426 136.615C74.2426 136.869 74.9177 137.449 75.4944 137.675C75.7335 137.788 75.9304 137.957 75.9304 138.056C75.9304 138.296 75.4241 138.621 74.8474 138.748C73.8628 138.946 73.905 139.581 74.9177 140.104C75.9726 140.641 75.8601 141.502 74.7208 141.502C74.0879 141.502 74.0175 141.827 74.5239 142.406C75.185 143.155 75.1006 143.409 74.0316 143.762C73.5252 143.931 73.1173 144.101 73.1173 144.129C73.1173 144.412 73.483 144.751 73.9191 144.892C74.6083 145.118 74.9459 145.429 74.9459 145.81C74.9459 146.22 74.6786 146.446 74.0457 146.544C73.6237 146.615 73.5393 146.686 73.5393 146.954C73.5393 147.208 73.68 147.349 74.0738 147.533C74.3973 147.688 74.6083 147.9 74.6364 148.084C74.6786 148.338 74.5802 148.395 74.116 148.479C73.5393 148.564 73.1173 148.974 73.1173 149.44C73.1173 149.581 73.3705 149.849 73.68 150.047C74.4817 150.556 74.4395 150.909 73.5674 151.022C73.1877 151.064 72.7657 151.191 72.625 151.304C72.3859 151.474 72.3719 151.53 72.5547 151.742C72.6672 151.883 73.0048 152.138 73.2861 152.321C73.8769 152.702 74.0175 153.225 73.5393 153.225C73.3705 153.225 73.047 153.324 72.822 153.451C72.4 153.663 72.4 153.677 72.6391 153.96C72.7798 154.115 73.1033 154.327 73.3565 154.426C74.1863 154.779 73.8909 155.287 72.7798 155.428C72.2734 155.499 72.1328 155.57 72.2031 155.739C72.4985 156.502 72.836 158.211 72.836 158.903C72.836 159.355 72.822 159.722 72.7938 159.722C72.7657 159.722 72.3156 159.496 71.767 159.228C69.4322 158.041 66.9566 157.476 63.595 157.363L61.1617 157.279V156.813C61.1617 156.558 61.0913 156.332 61.0069 156.304C60.8944 156.262 61.1054 154.92 61.6961 151.954C62.1603 149.581 62.9339 145.33 63.3981 142.491C63.8622 139.652 64.7202 134.426 65.311 130.867C66.9707 120.712 67.7302 117.11 68.9821 113.212C69.9245 110.316 70.0511 109.751 70.1636 108.381C70.262 107.082 70.3605 106.672 70.7403 105.853L71.1904 104.878L71.3029 101.404C71.4154 97.5057 71.4295 97.4069 72.822 90.7262C74.7208 81.6162 77.5058 65.8679 78.4622 58.8058C79.4749 51.3342 80.136 42.888 80.1501 37.5068V36.2638L79.7422 36.4757C79.0249 36.8571 78.8561 37.4644 78.9545 39.4276C79.053 41.3344 79.0389 41.4897 76.8588 57.8171C76.2821 62.1674 75.6773 66.9272 75.5085 68.4102C75.3397 69.8932 75.0302 71.8141 74.8052 72.718C73.7644 76.8705 72.7938 82.2517 71.2185 92.6329C69.2493 105.5 68.6164 108.706 66.5628 116.149C65.0859 121.488 65.0015 121.785 64.6921 123.211C64.2983 124.991 63.5387 129.581 62.7089 135.217C61.3023 144.835 60.6694 148.366 59.6004 152.731C58.5877 156.883 58.3345 157.66 57.9547 157.717C57.7859 157.745 57.6453 157.815 57.6453 157.886C57.6453 158.098 56.7029 158.324 56.295 158.225C56.0699 158.169 55.5495 157.872 55.1275 157.575C54.1711 156.855 53.4256 156.601 50.7813 156.05C48.151 155.513 47.2368 155.188 46.5194 154.51C45.8584 153.861 45.8443 153.635 46.3225 151.883C46.5194 151.177 46.8008 149.864 46.9555 148.96C47.3071 146.898 47.6869 145.598 48.9106 142.166C50.5563 137.576 50.6406 137.251 50.8938 134.652C51.1189 132.434 51.2314 131.983 52.3988 128.96C53.2287 126.757 53.5522 125.711 54.0023 123.593C55.2541 117.632 57.0123 110.98 59.741 101.884C60.2052 100.331 60.81 98.2402 61.0773 97.2374C61.4289 95.9238 61.668 95.3165 61.9212 95.0481C62.2728 94.6809 62.2869 94.5962 62.2588 93.325C62.2306 92.0115 62.2306 91.9691 63.0183 89.9494C66.1127 81.8986 66.394 80.9665 67.6177 74.4835C68.6867 68.8763 69.0946 67.2944 70.1073 64.8792C70.7825 63.2549 71.0919 62.2662 71.4295 60.642C71.6686 59.4697 72.3719 56.4754 72.9907 53.9613C73.5956 51.4472 74.327 48.2975 74.6083 46.9699C75.6773 41.8005 76.479 38.6649 77.1541 36.8994C77.2807 36.5605 76.69 36.6734 76.2118 37.0689C75.5647 37.6198 75.1287 38.5661 73.4549 43.0151C73.0611 44.0603 72.8923 45.0631 72.6954 47.436C72.4703 50.176 72.2734 51.5884 72.0624 51.8144C71.964 51.9274 71.8233 52.2099 71.7811 52.45C71.6405 53.0573 71.317 53.5093 71.0356 53.5093C70.8387 53.5093 70.7965 53.6647 70.7825 54.5404C70.7825 55.8398 70.248 57.3934 69.4462 58.4669C68.8414 59.286 68.7992 59.4979 69.1087 60.5148C69.2212 60.8962 69.3196 61.447 69.3196 61.7295V62.2662H68.6164C68.1522 62.2662 67.9131 62.3227 67.899 62.4357C67.8568 62.8453 67.9694 63.0572 68.3632 63.3961C68.6445 63.6363 68.7711 63.8622 68.743 64.0317C68.6867 64.2718 68.546 64.3142 67.8287 64.3566L66.9848 64.399L67.041 65.769C67.0692 66.5458 67.1817 67.3226 67.2942 67.5486C67.5474 68.0712 67.5474 68.0571 67.2098 68.0571C66.8301 68.0571 66.2252 68.3537 66.2252 68.5514C66.2252 68.6362 66.4503 68.9186 66.7175 69.187C67.0973 69.5542 67.2098 69.7802 67.2098 70.1474C67.2098 70.6135 67.1958 70.6277 66.7597 70.5712C66.5065 70.5288 66.183 70.4582 66.0564 70.3875C65.8314 70.3028 65.8033 70.3734 65.8033 70.8819C65.8033 71.5598 66.0002 72.0118 66.2956 72.0118C66.5487 72.0118 66.5628 72.1672 66.3378 72.4779C66.183 72.6756 66.0705 72.6898 65.6767 72.5768C65.4094 72.5062 65.1422 72.4779 65.0859 72.5203C64.8327 72.6756 64.9734 73.3818 65.3813 73.9892C65.8033 74.6248 65.9158 74.9779 65.6767 74.9779C65.6064 74.9779 65.2969 74.8931 64.9875 74.7801C64.1295 74.4694 63.9607 74.8507 64.678 75.5005C65.3391 76.0937 65.2406 76.362 64.3686 76.4185L63.6231 76.4609L63.5809 77.1388C63.5528 77.6332 63.6653 78.1981 63.9748 79.088C64.2139 79.78 64.3686 80.4156 64.3264 80.4862C64.2139 80.6699 63.1449 80.9382 62.8354 80.8676C62.3291 80.7264 62.5401 81.3054 63.1308 81.7009C63.595 82.0116 63.6934 82.1529 63.6934 82.5484C63.6934 83.0992 63.4543 83.2687 62.4979 83.4099C61.7524 83.5088 61.7524 83.6642 62.4416 84.1161C63.1308 84.5822 63.2715 84.7093 63.2715 84.9353C63.2715 85.0907 63.0886 85.1472 62.5682 85.1472C61.9774 85.1472 61.8649 85.1895 61.8649 85.4155C61.8649 85.5568 62.0618 85.9099 62.2869 86.2065C62.7229 86.7573 62.7792 86.9409 62.5963 87.2234C62.526 87.3505 62.3432 87.3505 61.8931 87.2234C61.246 87.0539 60.8522 87.181 60.7678 87.5906C60.7397 87.7178 60.9788 88.0991 61.2882 88.4381C61.6117 88.7771 61.8649 89.1867 61.8649 89.342C61.8649 89.6951 61.3304 89.9494 60.599 89.9494C60.2896 89.9494 60.0364 90.0058 60.0364 90.0906C60.0364 90.4154 60.374 90.9098 60.7397 91.1358L61.1476 91.3759L60.6272 91.8561C60.1067 92.3222 60.1067 92.3363 60.1067 93.5086V94.6809L59.3753 94.7233C58.4892 94.7798 58.4189 94.9775 59.0518 95.6837C59.6144 96.3334 59.5019 96.5312 58.6299 96.4747C57.9969 96.4182 57.9266 96.4464 57.9266 96.7148C57.9266 96.8843 58.0813 97.2656 58.2782 97.5763C58.4751 97.8871 58.6299 98.2684 58.6299 98.4238C58.6299 98.6639 58.5314 98.7063 58.0672 98.7063C57.5749 98.7063 57.5046 98.7486 57.5046 99.0452C57.5046 99.2289 57.7015 99.6102 57.9266 99.9068C58.4611 100.585 58.4892 101.192 57.9828 101.418C57.7156 101.545 57.5187 101.545 57.2233 101.432C56.4778 101.15 56.4356 101.757 57.153 102.435C57.4202 102.703 57.6453 103.028 57.6453 103.184C57.6453 103.494 57.1248 103.791 56.5763 103.791C56.2387 103.791 56.2247 103.833 56.309 104.257C56.3653 104.497 56.4216 104.808 56.4638 104.935C56.5763 105.33 56.1684 105.684 55.6198 105.669C55.1838 105.655 55.1135 105.698 55.1135 105.98C55.1135 106.192 55.2823 106.446 55.5917 106.686C56.1121 107.082 56.309 107.647 56.0137 107.901C55.859 108.028 55.648 108.014 55.1697 107.887C54.6212 107.732 54.5087 107.732 54.3117 107.929C54.1008 108.141 54.143 108.212 54.8181 108.847C55.4229 109.426 55.5495 109.624 55.5073 109.949C55.4651 110.359 55.4651 110.359 54.368 110.401L53.2568 110.443L53.8335 110.853C54.2977 111.192 54.4102 111.361 54.4102 111.715C54.4102 112.082 54.368 112.138 54.1711 112.053C53.5522 111.785 53.285 111.799 53.285 112.096C53.285 112.435 53.4819 112.604 54.1711 112.816C54.6071 112.972 54.6915 113.056 54.6915 113.381C54.6915 114.073 54.2836 114.285 53.2146 114.172C52.5395 114.101 52.3004 114.13 52.3004 114.243C52.3004 114.44 53.1865 115.344 53.6929 115.669C54.2414 116.022 53.946 116.22 52.8489 116.22C52.1597 116.22 51.8784 116.277 51.8784 116.39C51.8784 116.686 52.0472 116.856 52.6801 117.265C53.1302 117.534 53.285 117.731 53.285 117.986C53.285 118.31 53.2428 118.339 52.5817 118.339C51.9628 118.339 51.8784 118.367 51.8784 118.635C51.8784 118.805 52.0613 119.158 52.3004 119.426C52.7364 119.921 52.7927 120.118 52.5958 120.443C52.5114 120.57 52.3426 120.613 52.0753 120.542C51.2455 120.33 50.9642 120.373 50.922 120.683C50.8938 120.909 51.0204 121.079 51.3721 121.305C51.8503 121.601 52.3004 122.096 52.3004 122.322C52.3004 122.392 51.8925 122.435 51.3861 122.435C50.6828 122.435 50.4719 122.477 50.4719 122.632C50.4719 122.901 50.8094 123.226 51.3439 123.508C51.7096 123.692 51.7518 123.776 51.6674 124.172C51.5127 124.878 51.3299 125.019 50.6828 124.935C50.3734 124.892 50.0077 124.822 49.8811 124.765C49.6701 124.68 49.6279 124.737 49.6279 125.033C49.6279 125.429 49.8248 125.655 50.6125 126.163C50.9923 126.404 51.1048 126.559 51.1048 126.884C51.1048 127.35 50.9642 127.378 49.867 127.166L49.3326 127.053L49.3747 127.533C49.4029 127.915 49.5295 128.084 49.9374 128.353C50.5984 128.776 50.6828 129.271 50.0921 129.115C49.4029 128.932 48.8684 128.988 48.8121 129.228C48.7981 129.355 48.995 129.723 49.2763 130.048C49.5435 130.387 49.7686 130.768 49.7686 130.923C49.7686 131.163 49.6561 131.192 48.8543 131.192C48.0385 131.192 47.9401 131.22 47.9401 131.474C47.9401 131.658 48.1229 131.841 48.4746 131.997C48.8684 132.194 49.009 132.35 49.0372 132.646C49.0794 133.028 49.0653 133.028 48.3058 133.028C47.8697 133.028 47.5181 133.084 47.5181 133.155C47.5181 133.508 47.7431 133.776 48.2776 134.045C48.9106 134.369 49.0653 134.525 49.0653 134.892C49.0653 135.118 48.9247 135.146 47.9401 135.146C46.9273 135.146 46.8148 135.175 46.8148 135.415C46.8148 135.57 47.068 135.994 47.3774 136.347C47.9541 137.011 48.362 137.689 48.362 137.971C48.362 138.056 47.926 138.112 47.2368 138.112C46.2241 138.112 46.1115 138.141 46.1115 138.381C46.1115 138.649 46.7164 139.242 46.9977 139.242C47.2509 139.242 47.6588 139.694 47.6588 139.963C47.6588 140.104 47.504 140.33 47.3212 140.443C47.0399 140.626 46.8711 140.641 46.4351 140.528C45.6052 140.287 45.4083 140.33 45.4083 140.725C45.4083 140.937 45.5489 141.163 45.774 141.319C46.421 141.756 46.9555 142.321 46.9555 142.547C46.9555 142.731 46.7867 142.773 46.0694 142.773C44.8035 142.773 44.6909 142.957 45.4927 143.776C45.9287 144.228 46.1256 144.525 46.0694 144.666C45.9287 145.033 45.5349 145.104 45.0988 144.85C44.8597 144.722 44.5221 144.609 44.3252 144.609C43.7767 144.609 43.9455 145.174 44.5925 145.527C44.9722 145.725 45.127 145.909 45.127 146.121C45.127 146.417 45.0566 146.446 44.4237 146.446C44.0439 146.446 43.7204 146.474 43.7204 146.516C43.7204 146.559 43.9455 146.912 44.2127 147.307C44.48 147.703 44.705 148.098 44.705 148.197C44.705 148.282 44.7472 148.494 44.7894 148.663C44.8738 148.96 44.8316 148.988 44.3956 148.988C44.1283 148.988 43.5094 148.79 43.0171 148.55C42.1029 148.084 40.3728 146.573 39.9649 145.866C39.7821 145.57 39.5148 145.4 38.9522 145.231C38.1083 144.991 37.4331 144.553 35.9141 143.324C34.9154 142.519 33.9167 141.926 33.537 141.926C33.1009 141.926 33.1713 141.573 34.0011 139.906C35.0139 137.844 35.9844 136.234 37.194 134.624C37.8832 133.706 38.0942 133.324 38.0942 132.957C38.0942 131.954 38.6287 130.245 39.2476 129.186C42.7921 123.31 45.4927 117.082 51.0345 102.025C51.6674 100.316 52.9333 97.0679 53.8476 94.8221C55.437 90.8815 56.4638 88.2262 58.2079 83.3817C60.0223 78.3959 63.8622 68.2831 66.9707 60.3595C67.885 58.0008 68.4054 56.4471 68.6726 55.2607C69.0805 53.3822 70.2902 49.1309 71.8374 44.1309C72.7376 41.2214 72.836 40.7694 72.836 39.7525L72.822 38.6084L72.4141 39.0604C71.9921 39.5265 71.767 40.1762 71.3591 42.1395C71.1763 42.9586 70.8387 43.8061 70.0933 45.2467C68.8696 47.6196 68.8133 47.7749 68.546 49.8229C68.3351 51.4754 68.1522 51.9274 67.5615 52.3229C67.041 52.6619 66.4643 54.3568 65.1703 59.3708C64.889 60.4583 64.467 61.9837 64.2279 62.7606C63.4121 65.43 60.3318 73.4101 59.2487 75.6417C57.8141 78.6077 57.7437 78.7772 57.2233 80.6416C56.3934 83.5794 55.7464 85.4438 53.8054 90.5143C53.2287 92.0256 52.427 94.2148 52.0191 95.3871C49.9655 101.39 49.4029 102.859 47.3493 107.816C40.9636 123.211 36.547 132.449 32.6649 138.564C31.9054 139.751 31.9054 139.751 31.0614 139.934C29.894 140.174 29.7815 140.104 27.095 137.378C24.9429 135.203 24.521 134.708 24.085 133.79C23.6067 132.83 23.5645 132.632 23.5505 131.516C23.5364 130.302 23.5505 130.274 23.9162 130.09C24.1271 129.991 24.5772 129.581 24.9008 129.172C25.2383 128.776 25.8009 128.155 26.1526 127.802C26.6027 127.35 26.8418 126.968 26.9824 126.46C27.1372 125.923 27.3903 125.542 28.0655 124.836C28.7547 124.115 29.1485 123.508 29.9081 122.011C30.4285 120.966 31.7647 118.664 32.8618 116.898C34.9998 113.48 36.125 111.418 36.8283 109.737C37.0674 109.158 37.4894 108.424 37.7988 108.085C38.5584 107.265 39.0929 106.15 39.6414 104.215C40.1759 102.336 40.5979 101.432 41.3293 100.542C42.2154 99.4548 42.3279 99.2147 42.4545 97.9294C42.5952 96.5312 42.8905 95.825 44.4237 93.1273C44.9582 92.1951 45.999 90.133 46.7445 88.5369C50.7813 79.9637 54.143 72.5627 57.2374 65.4441C58.1094 63.4244 59.3894 60.6561 60.0786 59.3002C62.4275 54.6816 63.6231 51.8992 66.8301 43.6084C67.7162 41.3203 68.7711 38.7921 69.1649 37.987C69.9104 36.4616 70.0511 35.713 69.6994 35.2328C69.5166 34.9927 69.4744 35.0209 69.0524 35.5859C68.4195 36.4757 67.3645 38.5661 66.3659 41.0095C65.4376 43.2411 64.5374 45.1337 64.1013 45.7552C63.9607 45.9529 63.806 46.4049 63.7497 46.7439C63.4262 49.0179 62.8073 50.628 60.6412 54.9217C59.7973 56.5884 58.9534 58.4527 58.7705 59.0459C58.5736 59.6533 58.3485 60.1476 58.2642 60.1476C58.1798 60.1476 57.9969 60.303 57.8703 60.5007C57.7437 60.6985 57.5046 60.8538 57.3499 60.8538C57.1248 60.8538 57.0827 60.9103 57.153 61.0939C57.2092 61.2352 57.2796 61.5459 57.3218 61.786C57.3921 62.1956 57.3499 62.2662 56.8857 62.4781C56.2247 62.8029 55.9011 63.3538 55.4792 64.9357C55.0432 66.5599 54.7196 67.1955 54.157 67.5627C53.7351 67.8311 53.721 67.8876 53.7069 68.8057V69.7802L53.1865 69.7237C52.7364 69.6813 52.652 69.7237 52.6098 69.9779C52.5817 70.1474 52.6661 70.5288 52.7786 70.8113C52.9052 71.1079 53.0037 71.461 53.0037 71.6022C53.0037 71.9412 52.4973 72.1531 51.7237 72.1531C51.0345 72.1531 50.9782 72.4779 51.5971 73.0711C51.8221 73.2971 52.0191 73.5796 52.0191 73.6926C52.0191 73.8197 51.6956 74.1022 51.3017 74.3423C50.0499 75.0909 49.4732 76.1784 49.4591 77.8309C49.4591 78.7207 49.4451 78.7772 49.0653 78.9326C48.7559 79.0597 48.6011 79.0597 48.362 78.9326C48.1089 78.7914 48.0245 78.8055 47.926 78.9467C47.8557 79.0597 47.8275 79.201 47.8557 79.2857C47.8838 79.3563 47.9823 79.667 48.0948 79.9495C48.2214 80.3309 48.2354 80.5992 48.137 80.8676C48.0245 81.2207 47.926 81.2631 47.2649 81.3054C46.3929 81.3619 46.2944 81.6162 46.9555 82.2517C47.4618 82.732 47.49 83.0286 47.0539 83.0286C46.5054 83.0286 46.1537 83.5794 45.7177 85.1472C45.127 87.3223 44.7894 87.8307 44.0158 87.8307C43.636 87.8307 43.5094 88.3251 43.7767 88.7488C43.9033 88.9324 44.0017 89.2432 44.0017 89.4409C44.0017 89.7234 43.9033 89.8222 43.4672 89.9352C43.1859 90.02 42.8624 90.0906 42.7499 90.0906C42.5952 90.0906 42.5811 90.2318 42.6655 90.7544C42.8484 91.9973 42.8202 92.3787 42.553 92.5482C42.342 92.6753 42.2435 92.6329 41.9763 92.3081C41.6247 91.8702 41.3152 91.8279 41.0339 92.1527C40.8792 92.3363 40.8932 92.4634 41.1605 92.9578C41.695 93.9606 41.5825 94.1866 40.7385 93.8335C40.5275 93.7487 40.4853 93.8052 40.4853 94.2289C40.4853 94.6385 40.5838 94.808 40.9917 95.147C41.8356 95.8532 41.484 96.0086 39.7961 95.6555C39.3601 95.5707 39.332 95.5848 39.4304 95.8956C39.6695 96.6583 39.7821 96.8419 40.1337 97.1244C40.3447 97.2939 40.4713 97.4916 40.415 97.5763C40.3728 97.647 39.8524 97.7176 39.2757 97.7176C38.263 97.7176 38.2208 97.7317 38.263 98.0283C38.2911 98.2543 38.474 98.4097 38.8678 98.565C39.6977 98.8758 39.7821 98.9605 39.7821 99.4548C39.7821 100.246 39.6133 100.359 38.8397 100.133C37.8832 99.8644 37.616 99.8644 37.5597 100.161C37.5316 100.316 37.7707 100.67 38.2208 101.107C38.9803 101.842 39.0788 102.096 38.7131 102.393C38.5443 102.534 38.3615 102.534 37.7707 102.393C36.5048 102.096 36.4767 102.11 36.5048 102.661C36.5189 102.986 36.6314 103.226 36.8564 103.395C37.7707 104.073 37.9536 104.257 37.9536 104.441C37.9536 104.709 37.2503 104.695 36.3501 104.427C35.9141 104.285 35.6046 104.257 35.5202 104.342C35.253 104.61 35.5624 105.133 36.1954 105.514C36.6173 105.768 36.8283 105.994 36.8283 106.192C36.8283 106.587 36.3923 106.559 35.9844 106.121C35.5905 105.698 34.9998 105.641 34.9998 106.037C34.9998 106.178 35.0983 106.531 35.2108 106.799C35.4921 107.477 35.4921 108.367 35.2248 108.268C34.7747 108.085 34.0011 108 33.6636 108.085C33.1291 108.226 33.1994 108.692 33.8042 108.932C34.2121 109.116 34.2965 109.215 34.2965 109.568C34.2965 110.076 34.1137 110.118 33.5229 109.723C32.9462 109.342 32.89 109.356 32.89 109.935C32.89 110.599 33.1994 111.178 33.6636 111.39C33.973 111.531 34.0152 111.602 33.8746 111.771C33.6214 112.068 33.3401 112.039 32.8056 111.63C32.5524 111.432 32.2148 111.277 32.0601 111.277C31.821 111.277 31.7647 111.361 31.7647 111.743C31.7647 111.997 31.8632 112.548 31.9898 112.957C32.1023 113.367 32.1726 113.748 32.1304 113.791C32.0882 113.833 31.8913 113.791 31.6944 113.706C31.2724 113.508 31.188 113.508 30.9489 113.65C30.7239 113.805 31.0896 114.779 31.5115 115.104C31.821 115.344 31.7507 115.655 31.399 115.655C31.2865 115.655 31.0052 115.556 30.7801 115.443C30.4004 115.246 30.3582 115.246 30.2316 115.486C30.1331 115.669 30.1753 115.909 30.4004 116.347C30.9208 117.364 30.2597 117.873 29.4439 117.068C29.1907 116.813 28.8954 116.644 28.7969 116.672C28.6984 116.7 28.614 117.124 28.5719 117.788C28.5156 118.664 28.5578 118.904 28.7547 119.101C28.9376 119.285 28.9516 119.384 28.825 119.511C28.6984 119.638 28.5437 119.61 28.178 119.412C27.9108 119.257 27.6435 119.172 27.6013 119.214C27.5591 119.271 27.5873 119.539 27.6717 119.822C27.8404 120.471 27.7561 120.697 27.2497 120.966C26.7855 121.206 26.7855 121.192 27.0106 121.827C27.2356 122.463 27.0106 122.717 26.5042 122.378C26.3073 122.251 26.0541 122.152 25.9275 122.152C25.59 122.152 25.6603 123.028 26.0541 123.607C26.2932 123.96 26.3495 124.144 26.237 124.257C25.9557 124.539 25.6322 124.426 24.957 123.833C24.1131 123.084 23.9724 123.353 24.5772 124.61C25.3649 126.248 24.9851 126.742 23.9302 125.457C23.663 125.118 23.3817 124.836 23.3113 124.836C23.1144 124.836 23.1707 125.57 23.3957 125.966C23.5786 126.305 23.6771 126.954 23.5364 126.954C23.5083 126.954 23.3254 126.884 23.1285 126.799C22.7487 126.615 22.594 126.319 22.2846 125.005C22.1017 124.299 21.9048 123.932 21.3422 123.268C20.9483 122.816 19.8794 121.404 18.9651 120.147L17.3194 117.844L17.6429 116.884C18.1774 115.302 18.7541 114.44 19.8653 113.551C21.2859 112.421 21.8626 111.799 22.0595 111.178C22.3549 110.217 22.8191 109.652 23.4379 109.469C24.1412 109.257 24.9148 108.395 25.9838 106.658C27.742 103.791 28.9235 102.153 31.1458 99.4831C34.1137 95.9238 34.7325 95.0764 36.6877 91.9691C39.0788 88.1697 39.8946 86.9692 40.5557 86.2771C40.8932 85.924 41.6809 84.7517 42.3279 83.6642C43.5094 81.6444 44.9863 79.3563 46.0553 77.9015C46.3788 77.4637 47.0539 76.3196 47.5322 75.3592C48.5308 73.3818 50.9079 69.074 53.7069 64.173C57.2233 58.0008 59.2487 54.2014 60.9085 50.6139C61.9774 48.3399 63.6934 44.1451 63.6934 43.8626C63.6794 43.7637 63.3559 44.0603 62.948 44.4982C62.2025 45.3174 62.104 45.4869 60.585 48.6224C59.8817 50.1054 59.5441 50.628 58.8268 51.3625C58.0954 52.1252 57.8844 52.4641 57.5749 53.3539C57.0264 54.9217 54.7478 59.512 53.4678 61.6306C52.8489 62.6334 51.3721 65.0487 50.1905 66.9978C48.995 68.9328 47.7291 71.2209 47.3634 72.0542C46.646 73.6926 46.1397 74.4835 45.7036 74.6248C45.5489 74.6671 45.4083 74.8931 45.352 75.1332C45.2395 75.7547 44.6347 76.8987 43.9877 77.7744C43.3125 78.6642 42.764 79.7235 42.6374 80.3732C42.5811 80.6557 42.2576 81.1642 41.7794 81.6868C41.3433 82.1529 40.5275 83.2687 39.9509 84.1585C37.7988 87.4918 37.3347 88.1415 36.5048 88.9748C35.8297 89.6669 35.5202 90.133 34.9998 91.2629C33.6214 94.3137 31.8491 96.8843 29.3595 99.469C27.9811 100.924 27.1512 101.955 25.59 104.215C22.8613 108.183 21.2859 110.203 19.5277 111.969C17.3898 114.13 15.8285 115.076 14.0562 115.316L13.2967 115.415L13.367 114.779C13.4374 114.172 13.4233 114.13 12.7903 113.607C12.4246 113.296 11.8902 112.76 11.5948 112.407C10.99 111.686 9.99131 109.681 9.54121 108.282L9.23177 107.35L9.89285 106.305C11.2431 104.229 13.7187 101.588 17.2772 98.4944C19.6684 96.404 22.2002 93.9041 22.2002 93.6216C22.2002 93.4945 22.2986 93.2685 22.4112 93.1131C22.5237 92.9719 22.6221 92.647 22.6221 92.4211C22.6221 92.0821 22.7909 91.8137 23.3395 91.2911C24.5491 90.1047 27.3622 86.8844 29.6408 84.0737C33.537 79.2857 35.7734 76.6304 37.3628 74.9355C38.3896 73.8197 39.2898 72.6756 40.0071 71.5457C41.8778 68.6079 44.6206 64.5119 48.151 59.3708C54.1711 50.6139 57.0686 46.1366 59.6426 41.631C61.3304 38.6932 63.7497 34.0322 63.6512 33.9193C63.4965 33.7639 62.8495 34.0322 62.3853 34.4418C61.8649 34.8938 61.6117 35.4023 61.1476 36.9418C60.7397 38.326 60.5006 38.6649 59.2347 39.696C57.378 41.2073 57.2092 41.405 57.2374 42.2666C57.2655 42.9445 57.1952 43.0999 56.5622 44.0603C56.1684 44.6394 55.5214 45.7552 55.1135 46.5462C54.2555 48.2693 53.3975 49.2862 52.5114 49.6534L51.8784 49.9077V50.854V51.8003L51.2736 52.1675C50.922 52.3653 50.4437 52.5206 50.1484 52.5206C49.5717 52.5206 49.5154 52.6619 49.8389 53.2268C49.9514 53.4246 50.0358 53.7494 50.0499 53.9472C50.0499 54.272 49.9796 54.3426 49.5717 54.4132C48.995 54.5262 48.7981 54.7381 48.1792 55.9951C47.6728 56.9979 47.1243 57.6053 46.7164 57.6053C46.5757 57.6053 46.5335 57.69 46.6038 57.8454C46.6601 57.9866 46.7304 58.3115 46.7726 58.5516C46.843 58.9894 46.8148 59.0318 46.21 59.286C45.4505 59.6109 45.2254 59.9781 45.2957 60.7267L45.352 61.2775H44.6206H43.8892L43.9595 61.8707C44.058 62.8171 43.6501 63.3396 42.5952 63.6363L41.7512 63.8622V64.7521C41.7512 65.7266 41.5121 66.0515 41.0198 65.7831C40.7948 65.6701 40.7807 65.6984 40.8651 66.0797C40.9354 66.4752 40.8651 66.5882 40.0774 67.3226C39.2194 68.1277 39.2194 68.1277 39.2194 68.9045V69.6813L38.474 70.0344C37.7988 70.3593 37.7285 70.4299 37.63 71.0231C37.4613 71.8564 37.3628 71.9694 36.6173 72.0824C35.9141 72.1813 35.7031 72.4355 35.7031 73.17C35.7031 73.9186 35.5202 74.088 34.9717 73.8762C34.5638 73.7208 34.4794 73.7349 34.3246 73.9468C34.2262 74.088 34.1699 74.2999 34.2121 74.4129C34.2403 74.5259 34.3387 74.8225 34.409 75.0626L34.5497 75.5146L33.2979 76.0372C32.6087 76.3196 32.0179 76.6163 31.9616 76.6869C31.9194 76.7575 32.032 77.0965 32.2008 77.4496C32.5946 78.2264 32.468 78.4241 31.7366 78.1981C30.8223 77.9157 30.4004 78.3535 30.9067 79.0597C31.0755 79.2857 31.2021 79.5964 31.2021 79.7377C31.2021 80.4297 30.33 80.571 29.8518 79.9495C29.683 79.7377 29.5002 79.6106 29.458 79.6529C29.4017 79.6953 29.3033 80.1331 29.2189 80.6134C29.0501 81.5738 28.8813 81.6585 28.1077 81.2631C27.7561 81.0795 27.6857 81.0795 27.6857 81.2348C27.6857 81.5738 28.1077 82.6613 28.2765 82.7602C28.4031 82.845 28.4031 82.9156 28.2624 83.0851C28.1077 83.2687 28.0374 83.2687 27.6576 83.0286C27.1512 82.7178 26.8418 82.8026 26.8418 83.2404C26.8418 83.424 26.6167 83.8478 26.3354 84.1867C25.7728 84.8364 25.4352 85.5285 25.4352 85.9805C25.4352 86.3195 24.9851 86.489 24.6054 86.2912C24.4507 86.2065 24.1693 86.1359 23.9724 86.1359C23.6911 86.1359 23.6067 86.2065 23.6067 86.4466C23.6208 86.6302 23.7052 86.9268 23.8177 87.1245C24.2537 87.8872 23.874 88.4805 23.1988 88.1274C23.0441 88.0426 22.7487 87.972 22.5518 87.972C22.2424 87.972 22.2002 88.0285 22.2564 88.2545C22.2986 88.4098 22.383 88.6641 22.4252 88.8336C22.6643 89.681 22.0033 90.1471 21.5532 89.455C21.2718 89.0313 21.1312 89.0172 20.9343 89.3985C20.8077 89.6104 20.8218 89.8364 20.9905 90.3307C21.1171 90.6979 21.2156 91.1358 21.2156 91.3194C21.2156 91.6301 21.1734 91.6442 20.2451 91.6442C19.6965 91.6442 19.2183 91.7149 19.1761 91.7855C19.1198 91.8702 19.2464 92.1245 19.4574 92.3787C20.1466 93.1979 19.5981 93.8617 18.8245 93.1273C18.5994 92.9154 18.3181 92.7742 18.1634 92.8024C17.9524 92.8448 17.9102 92.986 17.9243 93.664C17.9383 94.5397 17.7977 94.6809 17.3476 94.1866C17.0522 93.8476 16.6021 93.8193 16.4896 94.1159C16.4333 94.2289 16.5036 94.582 16.6302 94.8928C16.7568 95.2035 16.8553 95.5001 16.8553 95.5425C16.8553 95.6272 16.4896 95.5707 15.6878 95.373C15.3221 95.2882 15.3081 95.3024 15.3081 95.8532C15.3081 96.1639 15.4065 96.517 15.5191 96.63C15.7019 96.8136 15.7019 96.8701 15.505 97.0255C15.3221 97.1667 15.2096 97.1667 14.8439 97.0114C14.5907 96.9125 14.211 96.8278 13.9718 96.8136C13.6061 96.7995 13.5499 96.8419 13.6061 97.1526C13.6202 97.3504 13.7609 97.6611 13.9015 97.8729C14.0422 98.0707 14.211 98.4097 14.2672 98.6215L14.3516 99.0029L13.8171 98.7628C13.5077 98.6356 13.0998 98.4944 12.8747 98.452C12.509 98.3955 12.495 98.4097 12.495 99.0452C12.495 99.582 12.4528 99.6949 12.2418 99.6949C12.1011 99.6949 11.8902 99.5396 11.7917 99.3418C11.5807 98.9464 11.2713 98.9322 11.0322 99.2995C10.9196 99.4831 10.9478 99.7091 11.1306 100.218C11.5666 101.432 11.2994 101.997 10.6946 101.15C10.5117 100.895 10.357 100.811 10.1742 100.867C9.97724 100.952 9.94911 101.065 10.0194 101.503C10.2164 102.576 10.1882 102.859 9.92098 102.915C9.31616 103.042 8.78167 102.153 8.57069 100.67C8.4441 99.7797 8.20499 99.1724 6.95316 96.5877C6.13736 94.921 5.23716 93.1273 4.94179 92.6047L4.4073 91.6584L5.11057 90.938C6.0389 89.9635 7.09381 89.2432 9.52715 87.8449C15.4628 84.441 25.2243 76.6163 34.6482 67.7181C40.2884 62.3792 43.4954 59.1307 43.9033 58.2974C44.4659 57.1816 45.4927 55.8539 46.7445 54.6392C47.3493 54.0601 48.151 53.1138 48.5449 52.5206C48.9387 51.9415 50.0499 50.4444 51.0345 49.2015C52.005 47.9586 53.1021 46.532 53.4537 46.0236C54.0586 45.1479 55.3948 42.8739 55.3948 42.7044C55.3948 42.662 55.0572 42.8033 54.6634 43.001C53.6085 43.5377 52.0331 45.1902 50.3734 47.5066C49.5998 48.5941 47.5884 51.1082 45.9006 53.0856C44.2127 55.063 42.0185 57.7183 41.0058 58.9753C39.5992 60.7549 39.0366 61.334 38.5865 61.56C38.2349 61.7295 37.5597 62.3227 36.983 62.9583C36.4345 63.5656 35.7453 64.2012 35.4358 64.3425C35.0279 64.5543 34.6763 64.9215 34.1559 65.6984C33.3541 66.913 32.257 67.9723 30.9067 68.848C30.4004 69.1729 29.894 69.5542 29.7815 69.6955C29.669 69.8226 28.0936 71.1785 26.2792 72.7039C24.4647 74.2152 22.369 76.0795 21.6235 76.8281C20.7092 77.7603 19.8231 78.4806 18.8807 79.0738C17.1366 80.1755 15.941 81.0371 11.7214 84.2291C6.99535 87.8166 4.4073 89.5256 3.71809 89.5256C3.43678 89.5256 3.28206 89.4126 3.09921 89.0737C2.97262 88.8336 2.71944 88.4663 2.53659 88.2827L2.21308 87.9437L2.35373 84.3139C2.50845 80.7828 2.7335 78.6501 3.11327 77.379C3.29612 76.7434 3.31019 76.7434 5.11057 75.8253C6.12329 75.3168 7.88148 74.4694 9.02079 73.9327C11.4823 72.7745 13.0295 71.8423 14.0703 70.896C14.5345 70.4723 15.5191 69.865 16.6443 69.2859C19.9638 67.591 23.4098 65.3735 27.5451 62.2803C29.9081 60.5148 38.8397 53.3681 41.1183 51.4048C43.1437 49.6817 46.2381 46.6027 47.6166 44.9643C48.7277 43.6507 51.1048 40.2468 50.9923 40.1338C50.8938 40.035 49.7686 40.5011 49.3326 40.8259C49.0934 41.0095 48.5589 41.6734 48.137 42.3089C47.3352 43.4954 45.4786 45.2891 39.0085 51.0376C35.1264 54.4839 34.8451 54.724 34.0152 55.063C32.7915 55.5855 31.4834 56.5036 30.527 57.5205C29.8237 58.2409 29.5424 58.4527 29.2329 58.4527C29.0079 58.4527 28.7828 58.3821 28.7266 58.2974C28.6703 58.1985 28.5719 58.2691 28.4734 58.4669C28.389 58.6363 27.9811 58.9894 27.5591 59.2295C26.6589 59.7663 26.4198 60.0487 26.4198 60.6137C26.4198 61.0233 26.4058 61.0233 25.8853 60.9668C25.4071 60.8962 25.3368 60.9244 25.1821 61.2775C25.0695 61.5176 24.7038 61.8284 24.1975 62.0967C23.3113 62.5769 22.9878 62.8736 22.8472 63.3538C22.7065 63.7916 22.2002 63.7775 21.6657 63.3255C21.1593 62.9018 20.9343 62.8736 21.0327 63.269C21.1312 63.6221 20.8358 64.2153 20.5123 64.3142C20.0622 64.4554 19.5277 65.0628 19.5277 65.4441C19.5277 65.8537 19.4574 65.8679 18.7682 65.5854C18.3884 65.4159 18.1774 65.4018 17.9805 65.5148C17.657 65.6984 17.6429 65.7549 17.9102 66.221C18.1774 66.687 18.1774 67.1955 17.8961 67.3085C17.7695 67.3509 17.4601 67.2803 17.1929 67.1531C16.9256 67.026 16.4755 66.9272 16.2083 66.9272H15.7019L15.8004 67.6334C15.8707 68.1136 15.8426 68.4102 15.73 68.5514C15.4487 68.8904 15.0549 68.7915 14.8158 68.3396C14.4079 67.5486 13.8031 67.9158 13.6624 69.0175C13.5921 69.6531 13.5358 69.7661 13.2264 69.8508C12.9451 69.9215 12.7903 69.8508 12.5512 69.5684C12.3684 69.3565 12.1293 69.187 12.0167 69.187C11.8058 69.187 11.5526 69.8367 11.4823 70.5712L11.4401 70.9101L11.0603 70.6135C10.5961 70.2322 10.4133 70.2322 10.357 70.6277C10.3148 70.9243 10.1179 71.0796 9.18957 71.4751C8.852 71.6305 8.75354 71.7717 8.69728 72.2237C8.62695 72.7604 8.59882 72.7886 8.14873 72.7604C7.82522 72.7463 7.52984 72.5909 7.16414 72.2378C6.88283 71.9553 6.60152 71.7293 6.54526 71.7293C6.489 71.7293 6.4468 72.1107 6.4468 72.5909V73.4525L6.0389 73.3536C5.47628 73.2265 5.09651 73.4666 4.75894 74.1304C4.35104 74.9355 4.01346 75.0767 3.64776 74.6106C3.2258 74.0739 3.26799 73.1135 3.77435 71.5598C4.01346 70.8395 4.23851 69.8367 4.29477 69.3282L4.37917 68.4102L6.15142 67.7887C9.72406 66.5599 12.8607 64.9215 17.0241 62.1109C19.7387 60.2889 20.7374 59.512 22.4252 57.9019C24.2819 56.1223 25.2383 55.5149 29.0219 53.7494C31.6663 52.4924 32.9181 51.8285 33.7339 51.2212C34.4794 50.6563 35.478 49.5969 35.9141 48.919C36.3641 48.1987 36.8846 47.0264 36.7861 46.9275C36.758 46.8993 36.3923 47.1252 35.9703 47.4501C34.6341 48.4529 32.046 50.0489 27.5873 52.6054C21.314 56.1929 18.3603 58.2267 16.1239 60.4725C15.4628 61.1363 15.0408 61.4329 14.4641 61.6306C14.0281 61.786 13.4092 62.1532 13.0576 62.4781C12.706 62.7888 11.9183 63.4103 11.2994 63.8481C10.6805 64.286 9.99131 64.8368 9.76626 65.0769C9.51308 65.3453 9.20364 65.5148 8.99266 65.5148C8.31751 65.5148 6.65778 65.9385 5.9967 66.2633L5.32156 66.6023L4.98399 66.0938C4.18225 64.8933 4.16819 63.6786 4.91366 62.2662C5.15277 61.8001 6.01077 60.5996 6.8125 59.6109C7.71269 58.481 8.45817 57.3793 8.79574 56.6731C9.24584 55.7409 9.45682 55.4584 10.1601 54.9358C10.6243 54.5827 11.2853 53.8907 11.637 53.3963C14.6329 49.1732 16.0254 47.549 17.6289 46.4473C19.4293 45.2044 21.6797 44.1733 25.0977 43.0434L27.3341 42.3089L31.9054 42.2101C35.8015 42.1112 36.6173 42.0547 37.4613 41.8287C41.0761 40.8118 45.127 38.7073 48.1089 36.3062C49.3326 35.3034 49.2341 35.5294 50.4015 30.9815C51.794 25.5578 52.4692 23.4816 53.4959 21.4477C53.8195 20.8121 53.8476 20.6003 53.8476 18.8489C53.8476 17.4789 53.721 16.0806 53.3975 13.7925C53.088 11.5468 52.9474 10.0779 52.9474 8.66546C52.9333 6.82933 52.9615 6.61747 53.3412 5.58641C53.6366 4.78134 53.932 4.27288 54.4383 3.70792L55.1416 2.94522L55.6198 3.29832C56.3231 3.83503 57.4906 4.3435 58.5877 4.56948C59.2065 4.71072 60.81 4.80959 63.1308 4.85196C66.9285 4.93671 68.0397 5.0497 69.3618 5.50167C70.1214 5.7559 70.248 5.77003 70.8528 5.57229C72.3015 5.12032 73.8487 4.88021 77.6183 4.56948C80.6283 4.31525 80.7408 4.287 81.4863 3.86328C81.7958 3.67967 82.5553 3.43956 83.1742 3.31244C86.4655 2.66274 89.2786 2.56387 95.9035 2.8746C101.572 3.12883 102.444 3.11471 106.031 2.59212C108.83 2.18252 110.982 2.19664 113.19 2.66274ZM119.126 33.7074C119.688 34.0746 120.799 35.2045 120.799 35.4164C120.799 35.4729 120.659 35.5718 120.49 35.6424C119.688 35.9955 120.11 36.7158 121.939 38.0576C123.781 39.4135 124.372 40.1338 124.667 41.3909C124.963 42.6055 125.047 42.7892 125.525 43.2835L125.891 43.6366L126.271 43.2835C126.693 42.8739 126.918 42.8174 127.03 43.114C127.073 43.227 127.537 43.5377 128.071 43.8202C129.351 44.4982 130.842 45.6422 133.388 47.9021C136.117 50.3455 136.806 50.8822 141.687 54.498C143.937 56.1505 147.186 58.6505 148.902 60.0346C153.403 63.6504 154.979 64.6673 162.574 68.9328C167.131 71.4892 169.143 72.6898 170.69 73.7349C171.618 74.3564 171.773 74.4129 172.546 74.4129C173.334 74.4129 173.461 74.4553 174.206 75.0485C174.656 75.3875 175.43 75.9807 175.936 76.3479C177.723 77.6756 177.99 78.9608 177.272 82.8308C177.061 83.989 176.865 85.0201 176.836 85.1331C176.794 85.2743 176.611 85.3025 176.063 85.2319C174.938 85.0766 174.248 84.7658 170.718 82.7461C165.05 79.5117 162.447 77.7462 160.141 75.5569C159.184 74.653 158.833 74.4129 158.509 74.4129C158.27 74.4129 157.792 74.2575 157.426 74.0598C157.06 73.8621 156.681 73.7067 156.582 73.7067C156.484 73.7067 156.371 73.5796 156.315 73.4383C156.273 73.283 155.949 72.9299 155.612 72.6474C155.26 72.3649 154.979 72.0118 154.979 71.8706C154.979 71.687 154.669 71.4469 153.966 71.0655C152.602 70.3452 151.139 69.2435 149.338 67.5486C147.003 65.3453 145.92 64.4131 143.642 62.6476C139.999 59.8369 138.972 58.9471 135.357 55.5149C130.055 50.4726 127.368 47.7467 125.314 45.2467C122.515 41.8711 121.714 40.7412 120.856 39.0322C120.335 38.0152 119.829 37.2102 119.337 36.7017C118.169 35.4729 117.185 33.9051 117.339 33.5097C117.466 33.1566 118.422 33.2695 119.126 33.7074ZM122.769 36.4192C123.064 36.5746 123.809 37.1254 124.414 37.6339C125.019 38.1565 125.765 38.7497 126.06 38.9474L126.623 39.3146L126.032 39.357C125.23 39.4135 124.203 38.8485 123.275 37.8175C122.572 37.0265 121.967 36.1367 122.136 36.1367C122.178 36.1367 122.459 36.2638 122.769 36.4192Z" fill="white"/>
</g>
</svg>
